<?xml version="1.0" encoding="UTF-8"?>
<svg width="96px" height="96px" viewBox="0 0 96 96" version="1.1" xmlns="http://www.w3.org/2000/svg" xmlns:xlink="http://www.w3.org/1999/xlink">
    <!-- Generator: sketchtool 49.2 (51160) - http://www.bohemiancoding.com/sketch -->
    <title>4E2695C0-16E1-424D-8A0A-65CFCD7B6CD4</title>
    <desc>Created with sketchtool.</desc>
    <defs></defs>
    <g id="Page-1" stroke="none" stroke-width="1" fill="none" fill-rule="evenodd">
        <g id="Artboard">
            <g id="app_icon">
                <g id="Page-1">
                    <g>
                        <path d="M0,47.9997598 C0,21.4900995 21.4900995,0 47.9997598,0 C74.5099005,0 96,21.4900995 96,47.9997598 C96,74.5099005 74.5099005,96 47.9997598,96 C21.4900995,96 0,74.5099005 0,47.9997598" id="Fill-1" fill="#FFFFFF"></path>
                        <path d="M85.0160419,37.5160842 C84.5567277,37.0882046 84.0422191,36.673262 83.5401892,36.2334036 C82.349908,35.1898182 81.6794149,33.7169157 80.8346992,32.3944659 C79.6002623,30.4625391 77.31857,29.7179423 75.5571458,28.3983674 C73.1117898,26.5665827 73.3474463,24.025179 72.0597348,21.5048579 C70.9740831,19.3803135 67.7464052,17.9098067 65.7853209,16.7219976 C63.2228566,15.1695565 60.5615221,13.7848173 57.8344343,12.544781 C52.7013465,10.211807 48.5420815,10.2702631 43.1709375,11.9008054 C39.3884349,13.0488452 35.1226206,13.2735659 31.6477674,15.2591572 C28.4671247,17.0770467 26.2425467,20.2082821 23.9066198,22.940866 C22.3304571,24.7846294 20.7446953,26.7012234 18.7024991,28.0567345 C16.6564633,29.4146414 14.1731911,29.8128138 12.3532127,31.5296028 C7.79990705,35.8256483 9.82722476,44.8470562 14.6401845,48.1359315 C22.0463255,53.1971771 28.1134,41.6434693 29.096342,35.9478311 C29.3454371,34.505115 29.4515065,32.9823811 30.2160702,31.7337201 C30.7502569,30.8607115 31.5652156,30.19757 32.4056117,29.6120505 C33.8219504,28.6240463 35.3568372,27.8047024 36.9665966,27.177497 C38.2331902,26.6834949 39.7143224,26.4400875 40.9717969,27.0922086 C41.3202422,27.2728476 41.6446898,27.512901 42.0252918,27.6053766 C42.9919154,27.8411177 43.9407807,27.2167872 44.929482,27.3830517 C46.0362516,27.5689613 46.9673587,28.3954925 47.6532102,29.2306483 C49.1957763,31.1093896 50.0184142,33.4835704 51.0272735,35.6641752 C52.1369228,38.0627926 53.638693,40.216086 56.0874086,41.3775419 C60.9046879,43.662122 65.8937901,45.8815378 71.1775828,46.8096485 C74.5862027,47.4085841 78.4099811,47.440687 81.6563772,46.1038627 C83.551708,45.3233298 85.5382298,43.7775968 86.2811957,41.8073381 C87.0265613,39.8308506 86.2082429,38.6277087 85.0160419,37.5160842" id="Fill-3" fill="#FFE000"></path>
                        <path d="M65.1098266,59.2829975 C65.1098266,63.1138667 62.0046262,66.2196532 58.1734104,66.2196532 C54.3426735,66.2196532 51.2369942,63.1138667 51.2369942,59.2829975 C51.2369942,55.4521284 54.3426735,52.3468208 58.1734104,52.3468208 C62.0046262,52.3468208 65.1098266,55.4521284 65.1098266,59.2829975" id="Fill-5" fill="#FFE000"></path>
                        <path d="M17.7478225,39.9339875 C15.6436127,39.9339875 13.7052473,38.8489289 12.6890913,37.102775 C11.7788648,35.5377037 11.7884512,33.7776573 12.7168918,32.1474346 C13.8662984,30.1286986 15.9470216,29.5064068 18.3570367,28.7859087 C20.2508255,28.2196662 22.208843,27.6342615 23.8116853,26.2790162 C25.4749217,24.8734701 26.4421872,23.0568952 27.3778176,21.3002021 C28.2640781,19.6354875 29.1014482,18.0632304 30.4651103,16.9484704 C33.023235,14.8569182 36.3497078,14.381217 38.9399469,15.7345462 C39.5251952,16.0425783 40.2499253,15.8150273 40.5566894,15.2286646 C40.8639328,14.6427808 40.6367357,13.9189294 40.0500494,13.6128135 C36.609978,11.8130055 32.2515317,12.3950568 28.9480661,15.0935712 C27.2114939,16.5134889 26.2207418,18.3746159 25.2621041,20.1744239 C24.394537,21.8032094 23.5753811,23.3414536 22.264444,24.4499859 C21.0426603,25.4828275 19.4043484,25.9724213 17.6701728,26.4912373 C15.1336175,27.2495807 12.258663,28.1090046 10.6337721,30.9627326 C9.28592746,33.3306994 9.27969631,36.0076563 10.6174752,38.3071182 C10.7722952,38.5725144 10.9443707,38.8254552 11.1269912,39.0683359 C11.0718695,39.1411522 11.0220203,39.219238 10.9836748,39.3059469 C9.99867459,41.5301973 10.0422926,43.8938525 11.1035045,45.7904295 C12.0966532,47.5658057 13.8605466,48.7078718 16.0692479,49.0063228 C16.1234109,49.0139877 16.1780532,49.017341 16.2312576,49.017341 C16.8217785,49.017341 17.3360876,48.5814014 17.4175718,47.9801879 C17.5057665,47.3248413 17.0460997,46.7217116 16.3903915,46.6326074 C14.9255931,46.4347579 13.8207631,45.7391707 13.195252,44.6210573 C12.5889137,43.5374359 12.511264,42.1821905 12.9608651,40.8317357 C14.3321963,41.7860124 16.0002259,42.3292603 17.7478225,42.3292603 C18.4097618,42.3292603 18.9461196,41.7931982 18.9461196,41.1316239 C18.9461196,40.4700495 18.4097618,39.9339875 17.7478225,39.9339875" id="Fill-7" fill="#3E3A39"></path>
                        <path d="M84.8848566,36.4301473 C83.6303039,36.5494233 82.3354673,36.2533888 81.3278927,33.3260956 C80.4584339,30.7987844 79.4580528,29.3344193 76.4027182,28.3404521 C75.825317,28.1531552 75.2148256,28.4281129 74.9577765,28.9583884 C74.5463063,25.013177 73.4456952,21.1503572 70.5860247,18.4189833 C67.0108372,15.0040475 63.132562,12.9452182 59.0591022,12.2999778 C57.9829492,12.1294466 57.1624065,11.5340243 56.1241394,10.7814834 C54.5003185,9.60357245 52.4803735,8.13872832 48.829414,8.13872832 L48.8020786,8.13872832 C45.6968687,8.14543461 43.1935181,9.85649518 41.5620241,13.0874872 C41.2642117,13.6776402 41.5015984,14.3980868 42.0929071,14.6960374 C42.6842158,14.992551 43.4045285,14.756394 43.7033001,14.165762 C44.917569,11.7606009 46.6349059,10.5386201 48.8068743,10.5338299 L48.8303732,10.5338299 C51.7015533,10.5338299 53.1651981,11.595818 54.715645,12.7195996 C55.8584581,13.5478257 57.0396368,14.4047931 58.6835996,14.6649011 C62.2659807,15.2325402 65.7126437,17.0782055 68.9291135,20.1501628 C72.2597209,23.3308577 72.7512792,28.7203153 72.7925221,33.5727911 C72.7982769,34.230486 73.3339556,34.7602824 73.9914448,34.7602824 L74.0019953,34.7602824 C74.6642802,34.7545342 75.1961224,34.2137203 75.1903675,33.5521932 C75.1812557,32.4480514 75.1457676,31.3166054 75.0656796,30.1832433 C75.2090707,30.3801207 75.4109693,30.5367603 75.6603452,30.6177147 C77.8126513,31.3180424 78.3454526,32.0274715 79.0600105,34.1045036 C80.1433571,37.2526251 81.9733927,38.8439306 84.5045583,38.8439306 C84.7016612,38.8439306 84.9035598,38.8343502 85.1097745,38.8151894 C85.769182,38.7529168 86.2530672,38.168512 86.1912028,37.5103381 C86.1288588,36.8521642 85.5423458,36.3750599 84.8848566,36.4301473" id="Fill-9" fill="#3E3A39"></path>
                        <path d="M39.4913295,18.4971098 C38.8271723,18.4971098 38.2890173,19.03259 38.2890173,19.6934461 L38.2890173,24.8845886 C38.2890173,25.5454447 38.8271723,26.0809249 39.4913295,26.0809249 C40.1554867,26.0809249 40.6936416,25.5454447 40.6936416,24.8845886 L40.6936416,19.6934461 C40.6936416,19.03259 40.1554867,18.4971098 39.4913295,18.4971098" id="Fill-11" fill="#3E3A39"></path>
                        <path d="M38.079098,27.2227088 C37.9456649,26.574095 37.3119773,26.1551086 36.6663334,26.2917346 C36.431032,26.3401529 30.8804069,27.5333531 29.2629492,31.773552 C28.5489147,33.6455675 28.5010893,35.1604379 28.4585246,36.4969754 C28.4121339,37.9552778 28.3757865,39.1067711 27.5120584,40.5257636 C25.681299,43.5329731 24.8147013,44.5857121 22.2823422,44.5857121 C21.6218723,44.5857121 21.0867052,45.1221488 21.0867052,45.7841855 C21.0867052,46.4462223 21.6218723,46.982659 22.2823422,46.982659 C26.1069458,46.982659 27.5804488,45.0147656 29.5532498,41.7740935 C30.745539,39.8153086 30.7976688,38.1666886 30.8483638,36.5731983 C30.8885372,35.3143218 30.9263193,34.1249568 31.496399,32.629262 C32.6442105,29.6220525 37.1072843,28.6479333 37.1522402,28.6383456 C37.7974059,28.5036371 38.2125311,27.8703638 38.079098,27.2227088" id="Fill-13" fill="#3E3A39"></path>
                        <path d="M74.5428538,46.748253 C75.1541121,46.4956683 75.4448909,45.7949492 75.1919564,45.1828984 C74.939022,44.5708476 74.2386618,44.2808783 73.6278825,44.5334631 C72.1174614,45.1579754 70.0599738,44.5564689 67.3380541,42.6939557 C64.7986496,40.9565366 62.5586467,39.9826233 58.0053475,39.8105589 C54.4249836,39.6749204 51.3533628,35.9896748 50.701865,31.0472568 C50.4623437,29.228838 49.6791092,27.8034355 48.3722812,26.8098714 C45.8898827,24.9219559 42.4244891,25.3849481 42.277423,25.4060368 C41.624009,25.4980601 41.1698767,26.1014837 41.2599367,26.7557118 C41.3504757,27.40994 41.950237,27.8738908 42.6084414,27.7794711 C42.6343097,27.7746782 45.2532352,27.4401351 46.9313212,28.724627 C47.7164719,29.3246956 48.1729995,30.1869348 48.3272512,31.3607111 C49.1444977,37.5631774 53.0870178,42.0229524 57.9148084,42.2050819 C61.9100231,42.3560576 63.7677501,43.1545515 65.9861961,44.6719773 C68.4250016,46.3403789 70.5404534,47.1676301 72.3900366,47.1676301 C73.1512352,47.1676301 73.8678829,47.0271987 74.5428538,46.748253" id="Fill-15" fill="#3E3A39"></path>
                        <path d="M29.6949121,77.6965257 C27.3483751,77.6965257 25.550224,77.043387 24.3501816,75.7548398 C22.3560077,73.6133308 22.5572897,70.3327825 22.5596802,70.3035518 L22.5630269,51.6950898 C22.5630269,51.0333256 22.028028,50.4971098 21.3677656,50.4971098 C20.7075033,50.4971098 20.1725043,51.0333256 20.1725043,51.6950898 L20.1725043,70.1756076 C20.1428619,70.6955309 20.0132955,74.5913616 22.585976,77.3711543 C24.2559951,79.1772289 26.647952,80.0924855 29.6949121,80.0924855 C30.3551744,80.0924855 30.8901734,79.5562697 30.8901734,78.8945056 C30.8901734,78.2327415 30.3551744,77.6965257 29.6949121,77.6965257" id="Fill-17" fill="#3E3A39"></path>
                        <path d="M46.1991202,84.7019739 C37.0600585,87.2245041 33.8673439,80.8688528 33.7328329,80.5900543 C33.4508402,79.9971906 32.7388926,79.7426977 32.1383971,80.0191132 C31.5374212,80.2979117 31.2775267,81.006584 31.5580782,81.6027837 C31.5926668,81.6747471 34.5202026,87.6763006 42.1570647,87.6763006 C43.5569399,87.6763006 45.1163067,87.4742313 46.8438122,86.9971762 C47.4827395,86.8208421 47.8560075,86.1636403 47.6782608,85.5297909 C47.5005142,84.896418 46.8399691,84.5256399 46.1991202,84.7019739" id="Fill-19" fill="#3E3A39"></path>
                        <path d="M49.4885076,71.7687861 L42.4421282,71.7687861 C41.7827983,71.7687861 41.2485549,72.306941 41.2485549,72.9710983 C41.2485549,73.6352555 41.7827983,74.1734104 42.4421282,74.1734104 L49.4885076,74.1734104 C50.1478375,74.1734104 50.6820809,73.6352555 50.6820809,72.9710983 C50.6820809,72.306941 50.1478375,71.7687861 49.4885076,71.7687861" id="Fill-21" fill="#3E3A39"></path>
                        <path d="M46.7033331,46.0578035 L49.481638,46.0578035 C50.1447627,46.0578035 50.6820809,45.5196486 50.6820809,44.8554913 C50.6820809,44.1913341 50.1447627,43.6531792 49.481638,43.6531792 L46.7033331,43.6531792 C46.0402084,43.6531792 45.5028902,44.1913341 45.5028902,44.8554913 C45.5028902,45.5196486 46.0402084,46.0578035 46.7033331,46.0578035" id="Fill-23" fill="#3E3A39"></path>
                        <path d="M31.1657608,43.6531792 C30.5026362,43.6531792 29.9653179,44.1913341 29.9653179,44.8554913 C29.9653179,45.5196486 30.5026362,46.0578035 31.1657608,46.0578035 L33.9440658,46.0578035 C34.6071904,46.0578035 35.1445087,45.5196486 35.1445087,44.8554913 C35.1445087,44.1913341 34.6071904,43.6531792 33.9440658,43.6531792 L31.1657608,43.6531792 Z" id="Fill-25" fill="#3E3A39"></path>
                        <path d="M49.849711,54.9239653 C49.0917162,54.9239653 48.4748786,54.3076111 48.4748786,53.5491329 C48.4748786,52.7911382 49.0917162,52.174784 49.849711,52.174784 C50.6077058,52.174784 51.2245433,52.7911382 51.2245433,53.5491329 C51.2245433,54.3076111 50.6077058,54.9239653 49.849711,54.9239653 M49.849711,49.7572254 C47.758941,49.7572254 46.0578035,51.4583629 46.0578035,53.5491329 C46.0578035,55.639903 47.758941,57.3410405 49.849711,57.3410405 C51.940481,57.3410405 53.6416185,55.639903 53.6416185,53.5491329 C53.6416185,51.4583629 51.940481,49.7572254 49.849711,49.7572254" id="Fill-27" fill="#3E3A39"></path>
                        <path d="M31.1505054,54.9325282 C30.3959338,54.9325282 29.781882,54.3181107 29.781882,53.5620157 C29.781882,52.8064026 30.3959338,52.191985 31.1505054,52.191985 C31.905077,52.191985 32.5191289,52.8064026 32.5191289,53.5620157 C32.5191289,54.3181107 31.905077,54.9325282 31.1505054,54.9325282 M34.9252883,53.5620157 C34.9252883,53.4405779 34.9185511,53.3210676 34.9070015,53.2025212 L35.7881371,53.2025212 C34.7327955,56.4389355 33.4224011,61.2819915 33.4224011,65.3848551 C33.4224011,66.0503536 33.9608996,66.5895954 34.6254808,66.5895954 L42.4281746,66.5895954 C43.0922746,66.5895954 43.6312543,66.0503536 43.6312543,65.3848551 C43.6312543,64.7198384 43.0922746,64.1801148 42.4281746,64.1801148 L35.8680216,64.1801148 C36.1081563,60.3533777 37.3978577,55.9580032 38.3295226,53.2025212 L44.6697527,53.2025212 C45.3343339,53.2025212 45.8728324,52.6632794 45.8728324,51.9977809 C45.8728324,51.3322823 45.3343339,50.7930406 44.6697527,50.7930406 L39.1991086,50.7930406 C39.270331,50.6084744 39.3136418,50.5010115 39.3174917,50.4918555 C39.5677323,49.8759923 39.2722559,49.1729058 38.6572415,48.9218379 C38.0422272,48.6707701 37.3396286,48.9661724 37.0889068,49.5820356 C37.058108,49.6586571 36.8819771,50.095255 36.6240368,50.7930406 L33.7111403,50.7930406 C33.0374156,50.1680213 32.1394369,49.7820225 31.1505054,49.7820225 C29.0691775,49.7820225 27.3757225,51.477815 27.3757225,53.5620157 C27.3757225,55.6462164 29.0691775,57.3420088 31.1505054,57.3420088 C33.2318333,57.3420088 34.9252883,55.6462164 34.9252883,53.5620157" id="Fill-29" fill="#3E3A39"></path>
                        <path d="M70.9397645,61.5689738 L69.7312125,61.5689738 L69.7312125,58.3860655 L71.3005047,58.3860655 C71.9638633,58.3860655 72.5013711,57.8482919 72.5013711,57.1846053 C72.5013711,56.5209187 71.9638633,55.9831451 71.3005047,55.9831451 L69.7312125,55.9831451 L69.7312125,54.7220925 L70.9397645,54.7220925 C72.8265658,54.7220925 74.361273,56.2575586 74.361273,58.1452929 C74.361273,60.0330271 72.8265658,61.5689738 70.9397645,61.5689738 M70.9397645,52.3191721 L69.7312125,52.3191721 L69.7312125,47.814177 C69.7312125,47.1504903 69.1937048,46.6127168 68.5303462,46.6127168 C67.8674679,46.6127168 67.3294798,47.1504903 67.3294798,47.814177 L67.3294798,52.3191721 L67.3294798,63.9718942 L67.3294798,71.8621236 C67.3294798,72.5258102 67.8674679,73.0635838 68.5303462,73.0635838 C69.1937048,73.0635838 69.7312125,72.5258102 69.7312125,71.8621236 L69.7312125,63.9718942 L70.9397645,63.9718942 C74.1508812,63.9718942 76.7630058,61.358478 76.7630058,58.1452929 C76.7630058,54.9325883 74.1508812,52.3191721 70.9397645,52.3191721" id="Fill-31" fill="#3E3A39"></path>
                    </g>
                </g>
            </g>
        </g>
    </g>
</svg>