<?xml version="1.0" encoding="UTF-8"?>
<svg width="363px" height="532px" viewBox="0 0 363 532" version="1.1" xmlns="http://www.w3.org/2000/svg" xmlns:xlink="http://www.w3.org/1999/xlink">
    <!-- Generator: sketchtool 49.2 (51160) - http://www.bohemiancoding.com/sketch -->
    <title>DAE14223-4A0F-49AF-8F45-DFD4A9D7B3B0</title>
    <desc>Created with sketchtool.</desc>
    <defs></defs>
    <g id="Symbols" stroke="none" stroke-width="1" fill="none" fill-rule="evenodd">
        <g id="BIRD_IMAGE">
            <g id="Page-1">
                <path d="M289.5839,193.9046 C277.9639,196.9486 263.8809,203.7606 252.9739,211.1486 C251.2439,212.3206 249.5459,213.4146 247.9619,214.5516 C247.1479,214.0896 246.1339,213.9366 245.0729,214.3846 C201.2999,232.8516 150.6639,241.3366 105.2679,227.4896 C103.2139,222.2566 98.3889,217.5946 94.9439,213.7786 C89.2119,207.4256 82.9429,202.2896 75.5319,197.8776 C62.4729,190.1036 49.2559,187.0306 34.8769,190.0756 C27.6059,191.6146 22.0289,197.7346 15.1289,200.4606 C13.0649,201.2746 5.0859,204.6536 0.4999,207.8686 L0.4999,531.1486 L362.0809,531.1486 L362.0809,218.3576 C361.9819,217.9816 323.9549,184.9006 289.5839,193.9046" id="Fill-1" fill="#FFE000"></path>
                <path d="M239.7538,254.3665 C240.7098,257.5445 240.2078,259.7735 239.6328,261.3195 C234.7148,274.5385 205.1928,283.8635 189.3328,288.8735 C185.9808,289.9325 183.0858,290.8465 180.6978,291.6875 C121.5928,312.5075 86.1058,360.7865 51.7868,407.4755 C42.9178,419.5415 33.7468,432.0175 24.3838,443.6845 C17.5348,452.2195 10.1698,460.3545 2.4188,467.9725 L2.4188,486.4595 C3.2628,486.1555 4.0628,485.6865 4.7658,485.0445 C15.6698,475.0765 25.9438,464.1095 35.3028,452.4465 C44.8518,440.5495 54.1118,427.9505 63.0668,415.7675 C96.1288,370.7885 130.3168,324.2775 185.3498,304.8925 C187.5208,304.1285 190.3148,303.2455 193.5498,302.2235 C214.2178,295.6945 245.4518,285.8285 252.7538,266.2015 C254.1918,262.3375 254.6258,258.3835 254.0628,254.3665 L239.7538,254.3665 Z" id="Fill-3" fill="#FFFFFF"></path>
                <path d="M177.8075,375.1272 C177.5295,375.1482 177.2505,375.1802 176.9705,375.2352 C143.6465,381.7442 115.8815,401.7632 88.0225,423.4642 C77.6935,431.5102 66.4955,438.4022 55.6655,445.0682 C36.5645,456.8242 16.9525,468.9052 2.4185,487.3972 L2.4185,512.1202 C3.3365,511.4902 4.1245,510.6462 4.6735,509.5892 C17.3985,485.0602 39.5505,471.4262 63.0035,456.9912 C74.1565,450.1272 85.6885,443.0282 96.6255,434.5092 C123.5455,413.5382 148.2945,395.6522 177.8075,389.3612 L177.8075,375.1272 Z" id="Fill-5" fill="#FFFFFF"></path>
                <path d="M251.3075,410.3792 C173.2105,457.6142 127.4625,467.9122 90.7035,476.1872 C59.3905,483.2342 34.2165,488.9092 2.4185,514.1532 L2.4185,527.7942 L7.8175,527.7942 C12.2505,524.1282 16.5215,520.8932 20.6885,517.9972 L20.6885,515.1422 L24.9285,515.1422 C47.9855,500.1602 68.1025,495.6242 93.7785,489.8452 C130.8315,481.5042 176.8025,471.1352 254.1845,424.9682 L254.1845,409.4142 C253.1965,409.5192 252.2145,409.8302 251.3075,410.3792" id="Fill-7" fill="#FFFFFF"></path>
                <path d="M264.0082,482.931 C242.9432,494.528 223.0452,505.481 198.6302,510.189 C172.5962,515.207 145.4072,516.137 119.1132,517.035 C109.7432,517.356 100.0542,517.687 90.5192,518.198 L90.5192,527.794 L174.9112,527.794 C183.7322,526.856 192.5402,525.62 201.2802,523.935 C227.8632,518.81 249.6712,506.805 270.7602,495.195 C278.1282,491.138 285.6752,486.993 293.4652,483.106 L293.4652,467.539 C283.1572,472.394 273.4432,477.736 264.0082,482.931" id="Fill-9" fill="#FFFFFF"></path>
                <path d="M95.9745,463.8597 L93.7925,463.8597 L93.7925,453.8877 C62.6305,465.9727 23.1195,483.8967 2.4185,508.9907 L2.4185,527.7947 L6.5855,527.7947 C20.3315,501.0337 62.4785,481.2227 95.9745,468.0627 L95.9745,463.8597 Z" id="Fill-11" fill="#FFFFFF"></path>
                <path d="M89.5175,496.763 C74.3045,503.579 57.0995,511.278 33.7815,517.885 L33.7815,527.794 L49.3685,527.794 C60.3245,524.25 69.8525,520.533 78.5175,516.875 L78.5175,515.142 L82.5805,515.142 C86.9915,513.236 91.1855,511.356 95.2425,509.538 C113.3365,501.43 127.8005,494.966 146.1655,492.873 L146.1655,478.793 C124.8695,480.939 108.4545,488.276 89.5175,496.763" id="Fill-13" fill="#FFFFFF"></path>
                <path d="M290.5141,114.4358 C289.8141,109.0408 282.5391,109.7058 279.0341,107.3358 C273.4641,103.5728 273.0371,95.5378 267.2001,91.1768 C263.0011,88.0398 257.2141,85.8688 254.0921,81.5568 C250.7411,76.9288 251.1541,70.5748 247.9671,65.8228 C243.8581,59.6948 237.7051,55.0658 231.3641,51.4528 C224.6451,47.6228 217.3921,44.8628 211.2751,43.0738 C208.5801,42.2858 206.3551,40.4288 204.1151,38.7378 C196.2021,32.7608 186.3101,27.9558 177.7721,35.3768 C174.2281,38.4568 170.9451,42.3398 166.3511,43.3108 C158.2941,45.0128 151.3401,41.2468 142.9881,44.3078 C134.5481,47.4008 126.8741,53.0928 121.3951,60.2098 C116.0481,67.1568 110.8881,74.7748 103.0571,78.7128 C97.8301,81.3418 91.7801,82.1108 86.7261,85.0588 C81.6151,88.0408 74.1411,93.3738 73.8651,99.2848 C73.6181,104.5748 76.6071,109.2638 81.2991,111.5648 C81.2881,111.9248 81.2741,112.2868 81.2761,112.6478 C77.7151,113.9948 75.2491,118.3558 75.7761,122.2788 C76.3851,126.8078 77.1391,132.7338 80.8311,135.4268 C82.8371,136.8908 91.4151,136.8048 93.5551,138.0718 C97.9471,137.7708 102.0211,146.5478 104.6341,150.7398 C108.3921,156.7688 104.7341,155.0818 104.2001,161.2938 C104.1951,161.3508 104.1841,161.4028 104.1781,161.4578 C113.5261,203.1118 91.2131,239.7948 170.1931,251.8488 C216.8851,258.9738 237.8041,243.7278 241.5781,209.0588 C241.7681,207.3068 242.1271,205.7198 242.6201,204.2638 C242.0821,203.5398 241.7681,202.5938 241.8151,201.4188 C241.9361,198.3848 241.8861,194.7928 242.7001,191.6008 C240.8661,188.6868 242.1011,183.9678 246.4451,184.2898 C246.9941,184.3298 247.5871,184.4168 248.2031,184.5208 C249.3911,183.9668 250.6631,183.5538 251.9321,183.0088 C254.6271,181.8528 256.7851,179.9448 259.7031,179.2688 C259.8321,179.0098 259.9601,178.7578 260.0891,178.5188 C260.7411,177.3098 261.6601,176.6168 262.6601,176.3248 C263.6601,171.3748 264.0811,165.8348 261.2731,162.2308 C258.9021,159.1888 255.0111,156.3268 251.3001,155.4238 C249.8281,155.0668 248.3121,154.6928 246.9931,154.0188 C246.3311,154.4178 245.5351,154.6738 244.5701,154.6738 C238.8791,154.6738 238.4901,146.4868 243.3591,145.3148 C242.9191,143.0048 243.2731,140.5868 244.8391,138.2688 C245.3521,137.5098 245.9751,136.9758 246.6501,136.6278 C246.7231,135.6138 247.6081,135.1748 249.6321,135.5188 C284.0281,139.1788 291.1611,119.4278 290.5141,114.4358" id="Fill-15" fill="#FFFFFF"></path>
                <path d="M116.0883,124.1458 C113.2623,122.4508 108.6223,123.4588 105.4833,122.5718 C104.8103,122.3808 104.0803,122.0978 103.7753,121.4688 C103.3843,120.6658 103.8773,119.7158 104.4473,119.0278 C106.2323,116.8708 108.8223,115.5688 110.9973,113.8058 C113.1723,112.0418 115.0573,109.3798 114.5053,106.6348 C114.0493,104.3688 111.9973,102.6938 109.7883,102.0098 C103.8473,100.1698 94.3043,103.3128 90.7473,96.2478 C88.6573,92.0948 92.3723,86.2918 86.1393,84.3788 C81.8403,83.0598 76.6233,87.1028 74.6773,90.6188 C71.6783,96.0398 72.4723,103.2408 75.8653,108.2848 C76.9523,109.9008 78.4733,111.4218 80.2773,112.7928 C76.1183,114.1188 73.7343,124.4018 74.1863,128.1758 C74.5923,131.5598 76.5533,134.5878 78.9553,137.0168 C86.5253,144.6728 98.3573,144.5838 108.0883,142.0838 C115.0093,140.3058 126.5913,130.4448 116.0883,124.1458" id="Fill-17" fill="#FFE000"></path>
                <path d="M262.7729,120.886 C262.7979,120.888 262.8289,120.892 262.8679,120.904 C262.9419,120.926 262.9439,120.988 262.7729,120.886 M262.6899,120.911 C262.8129,121.185 262.6329,120.988 262.6899,120.911 M275.9039,112.026 C275.7409,111.728 275.5669,111.445 275.3799,111.177 C271.7389,105.965 264.2869,107.573 262.3849,113.83 C260.5739,119.79 254.3349,114.103 249.6879,112.958 C243.5569,111.449 237.2459,111.018 231.4919,108.188 C225.0519,105.02 211.9669,92.007 204.7409,98.995 C194.1749,109.216 212.6819,116.786 220.2959,119.563 C231.0829,123.494 242.8519,125.311 252.5579,131.787 C261.7539,137.922 271.9709,138.788 276.6689,126.251 C278.1359,122.336 278.0489,115.95 275.9039,112.026" id="Fill-19" fill="#FFE000"></path>
                <path d="M244.1591,182.6399 C244.1591,197.0459 232.4811,208.7249 218.0751,208.7249 C203.6691,208.7249 191.9911,197.0459 191.9911,182.6399 C191.9911,168.2349 203.6691,156.5559 218.0751,156.5559 C232.4811,156.5559 244.1591,168.2349 244.1591,182.6399" id="Fill-21" fill="#FFE000"></path>
                <path d="M157.3407,42.554 C148.0337,37.687 136.7357,40.01 128.8227,46.482 C119.8897,53.787 118.1577,66.307 109.3927,73.719 C99.6037,81.998 83.2587,79.512 76.2867,91.766 C68.7017,105.094 79.5217,119.682 93.9787,119.682" id="Stroke-23" stroke="#3E3A39" stroke-width="5" stroke-linecap="round"></path>
                <path d="M89.5561,139.179 C77.5581,137.557 72.8241,126.255 77.4641,115.775" id="Stroke-25" stroke="#3E3A39" stroke-width="5" stroke-linecap="round"></path>
                <path d="M166.5136,39.9505 C170.1156,32.8085 175.9316,27.4615 184.4856,27.4435 C200.5786,27.4105 204.0706,37.9855 213.8016,39.5295 C226.0216,41.4685 236.6656,47.9955 245.5016,56.4445 C256.3696,66.8375 257.7096,83.8465 257.8306,98.0705" id="Stroke-27" stroke="#3E3A39" stroke-width="5" stroke-linecap="round"></path>
                <path d="M263.7714,86.1663 C271.2594,88.6043 273.5414,91.6723 275.8924,98.5163 C278.2324,105.3243 282.0244,110.6463 289.8794,109.9063" id="Stroke-29" stroke="#3E3A39" stroke-width="5" stroke-linecap="round"></path>
                <path d="M149.9535,79.8167 C149.9535,79.8167 134.9855,82.9077 130.8915,93.6137 C126.7965,104.3207 131.0365,110.6007 125.4965,119.6817 C119.9565,128.7627 116.5555,133.1817 107.2455,133.1817" id="Stroke-31" stroke="#3E3A39" stroke-width="5" stroke-linecap="round"></path>
                <path d="M165.5907,77.679 C165.5907,77.679 184.0877,75.073 186.2027,91.116 C188.3177,107.158 198.4867,119.217 210.8217,119.682 C223.1557,120.148 229.2077,122.702 236.1907,127.477 C243.1737,132.251 251.0747,135.975 257.8307,133.182" id="Stroke-33" stroke="#3E3A39" stroke-width="5" stroke-linecap="round"></path>
                <path d="M104.6337,150.7395 L104.6337,204.7085 C104.6337,204.7085 102.7217,230.0085 128.9577,230.0085" id="Stroke-35" stroke="#3E3A39" stroke-width="5" stroke-linecap="round"></path>
                <path d="M137.0541,236.0589 C137.0541,236.0589 147.4481,258.3159 177.3881,249.9799" id="Stroke-37" stroke="#3E3A39" stroke-width="5" stroke-linecap="round"></path>
                <path d="M153.3305,145.5667 C153.3305,145.5667 142.9485,171.0277 142.9485,190.0437 L165.5905,190.0437" id="Stroke-39" stroke="#3E3A39" stroke-width="5" stroke-linecap="round" stroke-linejoin="round"></path>
                <path d="M138.7826,151.2474 L172.0956,151.2474" id="Stroke-41" stroke="#3E3A39" stroke-width="5" stroke-linecap="round"></path>
                <path d="M177.9501,130.6351 L186.0311,130.6351" id="Stroke-43" stroke="#3E3A39" stroke-width="5" stroke-linecap="round"></path>
                <path d="M133.0399,130.6351 L141.1209,130.6351" id="Stroke-45" stroke="#3E3A39" stroke-width="5" stroke-linecap="round"></path>
                <path d="M194.9379,155.7806 C194.9379,159.9026 191.5969,163.2436 187.4759,163.2436 C183.3549,163.2436 180.0129,159.9026 180.0129,155.7806 C180.0129,151.6596 183.3549,148.3186 187.4759,148.3186 C191.5969,148.3186 194.9379,151.6596 194.9379,155.7806 Z" id="Stroke-47" stroke="#3E3A39" stroke-width="5" stroke-linecap="round"></path>
                <path d="M140.3271,155.7806 C140.3271,159.9026 136.9861,163.2436 132.8651,163.2436 C128.7441,163.2436 125.4021,159.9026 125.4021,155.7806 C125.4021,151.6596 128.7441,148.3186 132.8651,148.3186 C136.9861,148.3186 140.3271,151.6596 140.3271,155.7806 Z" id="Stroke-49" stroke="#3E3A39" stroke-width="5" stroke-linecap="round"></path>
                <path d="M241.578,139.179 L241.578,209.059" id="Stroke-51" stroke="#3E3A39" stroke-width="5" stroke-linecap="round"></path>
                <path d="M248.5829,155.762 L241.5779,155.762 L241.5779,182.64 L248.5829,182.64 C255.9749,182.64 262.0219,176.593 262.0219,169.201 C262.0219,161.81 255.9749,155.762 248.5829,155.762 Z" id="Stroke-53" stroke="#3E3A39" stroke-width="5" stroke-linecap="round"></path>
                <path d="M241.578,166.4085 L249.632,166.4085" id="Stroke-55" stroke="#3E3A39" stroke-width="5" stroke-linecap="round"></path>
                <path d="M92.3617,211.3226 L88.3017,207.3086 C69.5547,188.7756 41.4317,185.9656 19.7657,200.4606 L2.9997,211.6766" id="Stroke-57" stroke="#3E3A39" stroke-width="5" stroke-linecap="round"></path>
                <path d="M257.831,211.4202 L273.312,202.2442 C301.171,185.7312 336.154,191.7112 357.64,216.6582 L361.695,221.3662" id="Stroke-59" stroke="#3E3A39" stroke-width="5" stroke-linecap="round"></path>
                <path d="M154.2694,319.7981 C85.1664,360.0321 70.0354,427.7961 2.0824,485.8351" id="Stroke-61" stroke="#3E3A39" stroke-width="5" stroke-linecap="round"></path>
                <path d="M0.4999,512.3226 C20.3819,473.9986 60.6149,461.2346 94.3639,434.9436 C120.1469,414.8586 147.5669,394.4656 180.3529,388.0626" id="Stroke-63" stroke="#3E3A39" stroke-width="5" stroke-linecap="round"></path>
                <path d="M2.081,531.1487 C73.794,469.6107 107.246,512.8847 256.971,422.3257" id="Stroke-65" stroke="#3E3A39" stroke-width="5" stroke-linecap="round"></path>
                <path d="M92.8676,531.1487 C129.2656,529.1957 166.0536,529.9487 201.9956,523.0187 C240.6916,515.5577 268.3826,493.1507 303.4766,477.5387" id="Stroke-67" stroke="#3E3A39" stroke-width="5" stroke-linecap="round"></path>
                <path d="M2.081,531.1487 C18.209,498.7727 78.176,471.8727 104.603,463.8597" id="Stroke-69" stroke="#3E3A39" stroke-width="5" stroke-linecap="round"></path>
                <path d="M35.7221,531.1487 C90.4261,516.0207 112.0651,495.0437 150.0131,491.5957" id="Stroke-71" stroke="#3E3A39" stroke-width="5" stroke-linecap="round"></path>
                <path d="M209.8866,188.0433 C214.7696,171.7793 223.6176,154.5563 244.1586,148.7393" id="Stroke-73" stroke="#3E3A39" stroke-width="5" stroke-linecap="round" stroke-linejoin="round"></path>
                <path d="M215.1977,201.136 C225.8867,204.585 236.3407,203.507 244.1587,196.703" id="Stroke-75" stroke="#3E3A39" stroke-width="5" stroke-linecap="round" stroke-linejoin="round"></path>
                <path d="M153.7108,204.0686 C153.6918,204.0726 153.6728,204.0766 153.6548,204.0816 C145.8438,205.7886 137.5648,205.3036 130.0058,202.6966 C129.0408,202.3636 128.0498,201.9716 127.3588,201.2196 C126.0098,199.7506 127.0248,198.2436 128.4418,197.3296 C134.7058,193.2896 141.6628,194.1786 148.1688,197.1056 C150.3318,198.0786 152.4958,199.0516 154.6588,200.0246 C155.3668,200.3426 156.1518,200.7476 156.3628,201.4946 C156.7388,202.8306 155.0748,203.7556 153.7108,204.0686 M194.7198,196.0336 C183.3208,188.3766 166.4978,181.8406 150.7738,181.3756 C148.8098,181.4396 146.8588,181.5526 144.9268,181.8176 C144.7578,181.9126 144.5758,181.9976 144.3678,182.0606 C142.2308,182.7136 140.0208,183.1756 137.8408,183.7206 C137.3778,183.9226 136.9218,184.1396 136.4658,184.3556 C136.2618,184.7686 135.9238,185.1426 135.3988,185.4226 C132.4588,186.9936 129.7958,189.0266 126.8548,190.5816 C125.7538,191.5716 124.7158,192.6366 123.7558,193.7926 C122.9808,194.7246 122.0138,194.8416 121.1808,194.5016 C120.6908,195.2316 120.3428,195.9446 120.2228,196.6026 C120.0568,197.5126 119.5568,198.0606 118.9338,198.3246 C118.9478,199.3056 119.1278,200.2856 119.5188,201.2416 C120.6068,203.9026 123.0688,206.1016 125.6668,208.1316 C126.1028,207.9596 126.5988,207.8856 127.1528,207.9796 C129.9228,208.4476 131.7018,210.2906 134.0138,211.7496 C136.5678,213.3616 139.3218,214.6376 142.0158,215.9926 C144.7608,217.3736 147.3528,219.4696 150.0248,221.3396 C152.3218,221.2776 154.6128,220.7616 156.8138,220.2146 C169.9228,216.9486 182.4398,212.3936 193.9728,206.7406 C193.6108,205.6886 193.8588,204.4746 195.1408,203.7966 C197.0198,202.8006 198.5608,201.3896 200.3218,200.2656 C198.6538,198.8396 196.7818,197.4186 194.7198,196.0336" id="Fill-77" fill="#FFE000"></path>
                <path d="M117.6244,200.3831 C124.9384,201.6341 131.1464,196.2561 138.2524,195.7801 C143.9314,195.4021 149.0184,199.0951 154.2024,200.8151 C158.2024,202.1411 162.3604,202.8871 166.4994,203.6271 C179.0304,205.8681 190.6144,206.1841 200.9144,198.7031" id="Stroke-79" stroke="#3E3A39" stroke-width="5" stroke-linecap="round" stroke-linejoin="round"></path>
                <path d="M117.6244,200.3831 C124.0204,204.0971 130.9704,209.4161 137.1514,213.4791 C143.3334,217.5411 150.3304,220.8691 157.7264,220.9281 C166.0184,220.9931 173.7664,216.9731 180.7694,212.5331 C186.0964,209.1561 196.0074,202.6661 200.9144,198.7031" id="Stroke-81" stroke="#3E3A39" stroke-width="5" stroke-linecap="round" stroke-linejoin="round"></path>
                <path d="M117.6244,200.3831 C122.9214,195.7201 128.2554,191.0281 134.3124,187.4051 C140.3694,183.7821 147.2554,181.2531 154.3124,181.3211 C162.8804,181.4031 170.8954,185.2351 178.7824,188.5841 C186.2944,191.7761 193.1234,196.2711 200.9144,198.7031" id="Stroke-83" stroke="#3E3A39" stroke-width="5" stroke-linecap="round" stroke-linejoin="round"></path>
                <path d="M138.2523,195.7806 C141.5553,189.3736 146.5903,183.4846 153.0263,181.3376" id="Stroke-85" stroke="#3E3A39" stroke-width="5" stroke-linecap="round" stroke-linejoin="round"></path>
                <path d="M139.4691,205.4085 C145.4531,212.6015 146.0521,218.5795 155.1471,220.7755" id="Stroke-87" stroke="#3E3A39" stroke-width="5" stroke-linecap="round" stroke-linejoin="round"></path>
                <path d="M163.8505,58.6741 C160.1855,53.1031 153.0175,52.4211 151.6455,48.4811 C149.2845,41.6961 152.1125,34.0181 151.4785,27.0451 C150.7385,18.9141 149.6485,9.9301 142.9815,4.3081 C138.1275,0.2151 130.6545,-0.8439 125.2525,2.4911 C119.8515,5.8271 117.5445,13.7051 120.9615,19.0551 C116.1365,18.6881 111.2305,21.6131 109.2595,26.0321 C107.2885,30.4521 108.3915,36.0571 111.8905,39.4011 C107.4865,42.1531 106.1795,48.3171 107.7555,53.2661 C109.3315,58.2131 113.1675,62.1101 117.2525,65.3151 C125.6665,71.9171 135.6755,74.1441 146.9925,73.4011 C156.0295,72.8071 170.9385,69.4491 163.8505,58.6741" id="Fill-89" fill="#FFE000"></path>
                <path d="M124.0116,1.4993 C118.3346,2.4373 116.7216,7.0943 117.8416,12.3733 C119.1076,18.3423 133.5386,54.3823 157.4116,60.1273" id="Stroke-91" stroke="#3E3A39" stroke-width="5" stroke-linecap="round"></path>
                <path d="M111.705,25.3294 C101.739,30.1864 118.821,53.2004 128.495,53.8524" id="Stroke-93" stroke="#3E3A39" stroke-width="5" stroke-linecap="round"></path>
                <path d="M108.6855,49.4612 C101.3855,65.9402 134.8325,70.6432 146.9925,68.3492" id="Stroke-95" stroke="#3E3A39" stroke-width="5" stroke-linecap="round"></path>
            </g>
        </g>
    </g>
</svg>