<?xml version="1.0" encoding="UTF-8"?>
<svg width="362px" height="429px" viewBox="0 0 362 429" version="1.1" xmlns="http://www.w3.org/2000/svg" xmlns:xlink="http://www.w3.org/1999/xlink">
    <!-- Generator: sketchtool 49.2 (51160) - http://www.bohemiancoding.com/sketch -->
    <title>83A8382F-27E4-440B-80FD-29B06B1D5CF7</title>
    <desc>Created with sketchtool.</desc>
    <defs></defs>
    <g id="Symbols" stroke="none" stroke-width="1" fill="none" fill-rule="evenodd">
        <g id="COW_IMAGE">
            <g id="Page-1">
                <path d="M40.7384,126.6879 C73.4534,141.3639 109.1364,142.0759 144.3184,139.2339 C163.3184,137.6989 182.2684,135.4169 201.3294,134.7339 C218.2554,134.1279 234.7684,136.0419 251.6094,137.0809 C270.0664,138.2189 287.7874,135.8789 302.5934,124.0629 C307.4524,120.1859 306.6394,111.8459 302.5934,107.7989 C297.7944,102.9999 291.2004,103.9129 286.3304,107.7989 C276.8814,115.3399 263.1524,114.7919 251.6094,114.0809 C235.7694,113.1039 220.1964,111.2139 204.2774,111.6399 C170.3044,112.5469 136.5994,118.9199 102.5464,117.4469 C85.4554,116.7079 68.0554,113.8749 52.3464,106.8289 C46.6834,104.2889 39.9824,105.1929 36.6124,110.9549 C33.7374,115.8699 35.0434,124.1329 40.7384,126.6879" id="Fill-1" fill="#FFFFFF"></path>
                <path d="M292.1622,123.097 C283.7752,128.124 276.4472,134.579 266.4152,135.841 C260.9902,136.524 255.6352,135.826 250.2902,134.885 C246.7402,134.261 245.1972,134.157 243.4022,137.736 C242.3192,139.897 241.7812,142.342 241.3982,144.713 C240.8542,148.079 235.7442,146.642 236.2832,143.303 C236.7792,140.23 237.8392,136.144 239.8862,133.12 C239.9392,133.018 239.9842,132.915 240.0562,132.812 C245.6762,124.648 253.5742,118.618 261.3912,112.675 C265.3232,109.684 269.3352,106.295 274.1842,104.955 C278.7462,103.695 283.5652,104.036 288.2492,104.106 C293.4292,104.017 301.7862,103.691 303.3932,110.005 C304.9412,116.091 296.2912,120.622 292.1622,123.097 Z M99.6582,133.889 C98.3372,134.435 97.0262,134.841 95.7232,135.138 C96.4492,137.351 93.4022,139.802 91.2692,137.81 C90.3792,136.978 89.3722,136.286 88.3102,135.666 C87.4262,135.149 85.2932,135.303 84.2362,135.083 C82.7022,134.765 81.1912,134.343 79.7032,133.857 C76.8592,132.925 74.1222,131.689 71.3582,130.54 C70.6272,130.237 69.8342,129.876 69.4922,129.162 C69.3572,128.88 69.3052,128.561 69.1382,128.297 C68.9072,127.934 68.5002,127.731 68.1152,127.54 C60.3242,123.69 53.5572,118.044 47.3362,111.976 C46.6832,111.339 45.9952,110.618 45.9082,109.71 C45.8022,108.607 46.7012,107.571 47.7732,107.288 C47.9412,107.243 48.0982,107.232 48.2572,107.214 C48.3442,106.429 48.5622,105.609 48.9422,104.753 C50.3252,101.636 54.8942,104.337 53.5222,107.431 C50.5262,114.187 89.4572,123.444 94.2882,125.368 C95.8562,125.992 96.2972,127.584 95.9502,128.865 C96.2212,128.873 96.4902,128.893 96.7622,128.899 C97.0492,128.906 97.3042,128.96 97.5432,129.034 C97.7782,128.947 98.0122,128.872 98.2482,128.775 C101.4062,127.47 102.7692,132.605 99.6582,133.889 Z M361.6382,115.994 C361.5392,115.618 323.5112,82.538 289.1412,91.541 C277.5202,94.585 263.4382,101.399 252.5302,108.786 C250.8012,109.958 249.1032,111.051 247.5182,112.19 C246.7052,111.726 245.6902,111.575 244.6302,112.022 C200.8572,130.489 150.2212,138.973 104.8242,125.126 C102.7702,119.893 97.9452,115.232 94.5012,111.415 C88.7682,105.063 82.5002,99.926 75.0892,95.515 C62.0292,87.742 48.8122,84.668 34.4332,87.712 C27.1632,89.252 21.5862,95.372 14.6852,98.097 C12.6222,98.911 4.6432,102.29 0.0572,105.505 L0.0572,428.786 L361.6382,428.786 L361.6382,115.994 Z" id="Fill-3" fill="#FFE000"></path>
                <path d="M264.1056,192.3754 C250.6186,207.3834 243.5766,227.9764 236.7596,247.9354 C230.1086,267.4104 223.2306,287.5494 210.4736,302.7294 C195.4786,320.5734 180.1716,339.7874 172.2066,361.2134 C163.6396,384.2514 164.9726,406.4184 176.2816,428.8714 L190.0626,428.8714 C190.0776,427.7944 189.8286,426.6984 189.2786,425.6854 C165.6336,382.1304 189.3956,348.0194 220.4266,311.0924 C234.7476,294.0514 242.0246,272.7424 249.0626,252.1364 C256.1226,231.4644 262.7916,211.9374 275.8156,198.8964 C277.5786,197.1304 278.1116,194.6044 277.4206,192.3754 L264.1056,192.3754 Z" id="Fill-5" fill="#FFFFFF"></path>
                <path d="M90.8615,108.9593 L86.8015,104.9453 C68.0545,86.4123 39.9315,83.6023 18.2655,98.0973 L1.5005,109.3133" id="Stroke-7" stroke="#3E3A39" stroke-width="5" stroke-linecap="round"></path>
                <path d="M256.3312,109.058 L271.8122,99.881 C299.6712,83.369 334.6532,89.348 356.1402,114.296 L360.1942,119.003" id="Stroke-9" stroke="#3E3A39" stroke-width="5" stroke-linecap="round"></path>
                <path d="M289.0138,106.2923 C288.3148,100.8973 281.0388,101.5623 277.5338,99.1923 C271.9638,95.4293 271.5368,87.3933 265.7008,83.0323 C261.5008,79.8963 255.7138,77.7243 252.5918,73.4123 C249.2418,68.7853 249.6538,62.4313 246.4668,57.6783 C242.3578,51.5503 236.2048,46.9223 229.8638,43.3083 C223.1448,39.4793 215.8918,36.7193 209.7748,34.9303 C207.0798,34.1423 204.8558,32.2843 202.6158,30.5933 C194.7018,24.6173 184.8108,19.8123 176.2728,27.2323 C172.7288,30.3133 169.4458,34.1963 164.8518,35.1673 C156.7938,36.8693 149.8398,33.1033 141.4888,36.1633 C133.0478,39.2573 125.3738,44.9493 119.8948,52.0663 C114.5478,59.0123 109.3878,66.6303 101.5568,70.5693 C96.3298,73.1973 90.2798,73.9663 85.2268,76.9143 C80.1158,79.8973 72.6408,85.2293 72.3648,91.1403 C72.1178,96.4313 75.1068,101.1203 79.7988,103.4213 C79.7878,103.7813 79.7748,104.1423 79.7768,104.5043 C78.7468,104.8943 77.8138,105.5403 77.0138,106.3493 C79.6278,106.6573 82.2158,107.3433 84.5948,108.3863 C85.3358,108.7113 86.1558,109.1363 86.9518,109.6463 C90.5558,111.0373 93.9758,113.1423 92.2708,116.9623 C91.0648,119.6643 87.5288,120.9583 84.8258,121.5193 C81.4278,122.2243 78.4358,121.3863 75.4388,120.2993 C75.4068,120.2963 75.3758,120.2963 75.3438,120.2933 C76.0548,123.1053 77.2038,125.7313 79.3308,127.2823 C81.3368,128.7473 89.9148,128.6603 92.0548,129.9273 C96.4478,129.6263 100.5218,138.4033 103.1338,142.5953 C106.8928,148.6243 103.2338,146.9383 102.6998,153.1493 C102.6948,153.2063 102.6838,153.2593 102.6778,153.3133 C112.0258,194.9673 89.7128,231.6513 168.6938,243.7043 C212.4168,250.3773 233.5378,237.4303 239.1468,207.2893 L239.1468,144.3333 C238.2768,142.7963 238.2728,140.7623 239.1468,139.2253 L239.1468,135.6333 L241.6968,135.6333 C241.6408,133.8023 242.1178,131.9343 243.3388,130.1253 C243.8518,129.3653 244.4748,128.8323 245.1498,128.4843 C245.2228,127.4693 246.1078,127.0303 248.1318,127.3743 C282.5288,131.0353 289.6608,111.2843 289.0138,106.2923" id="Fill-11" fill="#FFFFFF"></path>
                <path d="M242.6593,174.4964 C242.6593,188.9024 230.9803,200.5804 216.5753,200.5804 C202.1693,200.5804 190.4903,188.9024 190.4903,174.4964 C190.4903,160.0904 202.1693,148.4124 216.5753,148.4124 C230.9803,148.4124 242.6593,160.0904 242.6593,174.4964" id="Fill-13" fill="#FFE000"></path>
                <path d="M153.4113,51.9838 L153.4113,62.9748 C153.4113,66.1928 158.4113,66.1978 158.4113,62.9748 L158.4113,51.9838 C158.4113,48.7658 153.4113,48.7608 153.4113,51.9838" id="Fill-15" fill="#3E3A39"></path>
                <path d="M155.8409,34.4105 C146.5329,29.5435 135.2359,31.8665 127.3219,38.3385 C118.3899,45.6435 116.6579,58.1625 107.8929,65.5755 C98.1039,73.8545 81.7589,71.3685 74.7859,83.6215 C67.2009,96.9505 78.0219,111.5385 92.4789,111.5385" id="Stroke-17" stroke="#3E3A39" stroke-width="5" stroke-linecap="round"></path>
                <path d="M165.0138,31.806 C168.6158,24.665 174.4318,19.318 182.9858,19.3 C199.0788,19.267 202.5708,29.842 212.3008,31.386 C224.5218,33.325 235.1648,39.852 244.0018,48.301 C254.8698,58.694 256.2088,75.703 256.3308,89.927" id="Stroke-19" stroke="#3E3A39" stroke-width="5" stroke-linecap="round"></path>
                <path d="M262.2716,78.0218 C269.7596,80.4608 272.0416,83.5288 274.3926,90.3718 C276.7326,97.1808 280.5246,102.5028 288.3796,101.7628" id="Stroke-21" stroke="#3E3A39" stroke-width="5" stroke-linecap="round"></path>
                <path d="M155.7999,49.3734 L155.7999,64.5214" id="Stroke-23" stroke="#3E3A39" stroke-width="5" stroke-linecap="round"></path>
                <path d="M148.4532,71.6722 C148.4532,71.6722 133.4852,74.7632 129.3912,85.4702 C125.2972,96.1772 129.5362,102.4572 123.9972,111.5382 C118.4572,120.6192 115.0562,125.0382 105.7452,125.0382" id="Stroke-25" stroke="#3E3A39" stroke-width="5" stroke-linecap="round"></path>
                <path d="M164.0909,69.5345 C164.0909,69.5345 182.5879,66.9285 184.7019,82.9725 C186.8179,99.0145 196.9869,111.0725 209.3209,111.5385 C221.6559,112.0045 227.7079,114.5585 234.6909,119.3335" id="Stroke-27" stroke="#3E3A39" stroke-width="5" stroke-linecap="round"></path>
                <path d="M103.1339,142.5961 L103.1339,196.5641 C103.1339,196.5641 101.2219,221.8641 127.4569,221.8641" id="Stroke-29" stroke="#3E3A39" stroke-width="5" stroke-linecap="round"></path>
                <path d="M135.5538,227.9144 C135.5538,227.9144 145.9478,250.1714 175.8888,241.8364" id="Stroke-31" stroke="#3E3A39" stroke-width="5" stroke-linecap="round"></path>
                <path d="M151.8302,137.4222 C151.8302,137.4222 141.4482,162.8832 141.4482,181.9002 L164.0912,181.9002" id="Stroke-33" stroke="#3E3A39" stroke-width="5" stroke-linecap="round" stroke-linejoin="round"></path>
                <path d="M137.2823,143.1039 L170.5953,143.1039" id="Stroke-35" stroke="#3E3A39" stroke-width="5" stroke-linecap="round"></path>
                <path d="M176.4503,122.4916 L184.5303,122.4916" id="Stroke-37" stroke="#3E3A39" stroke-width="5" stroke-linecap="round"></path>
                <path d="M131.5402,122.4916 L139.6202,122.4916" id="Stroke-39" stroke="#3E3A39" stroke-width="5" stroke-linecap="round"></path>
                <path d="M193.4386,147.6371 C193.4386,151.7581 190.0966,155.0991 185.9756,155.0991 C181.8546,155.0991 178.5126,151.7581 178.5126,147.6371 C178.5126,143.5161 181.8546,140.1741 185.9756,140.1741 C190.0966,140.1741 193.4386,143.5161 193.4386,147.6371 Z" id="Stroke-41" stroke="#3E3A39" stroke-width="5" stroke-linecap="round"></path>
                <path d="M138.8273,147.6371 C138.8273,151.7581 135.4863,155.0991 131.3643,155.0991 C127.2433,155.0991 123.9023,151.7581 123.9023,147.6371 C123.9023,143.5161 127.2433,140.1741 131.3643,140.1741 C135.4863,140.1741 138.8273,143.5161 138.8273,147.6371 Z" id="Stroke-43" stroke="#3E3A39" stroke-width="5" stroke-linecap="round"></path>
                <path d="M240.0782,131.0355 L240.0782,200.9155" id="Stroke-45" stroke="#3E3A39" stroke-width="5" stroke-linecap="round"></path>
                <path d="M164.0909,204.4007 L184.7019,204.4007" id="Stroke-47" stroke="#3E3A39" stroke-width="5" stroke-linecap="round"></path>
                <g id="Group-52" transform="translate(56.000000, 7.286000)">
                    <path d="M45.6486,45.4897 C37.8376,41.6527 32.1386,34.7007 27.7466,27.3697 C23.3526,20.0387 20.0126,12.1427 15.4266,4.9247 C14.0286,2.7217 12.1686,0.3777 9.5076,0.1337 C8.4336,0.0347 7.4836,0.1377 6.6436,0.4057 C0.5586,2.3437 0.3346,10.6577 0.6786,15.7087 C1.7646,31.5997 6.9216,49.1937 16.4756,62.3397 C17.7306,64.0657 19.1396,65.7607 20.6886,67.3427 C25.4806,72.2327 31.6166,76.0237 38.7066,76.2277 C47.8596,76.4927 55.4226,68.2207 57.6366,60.2347 C60.0006,51.7087 52.1516,48.6837 45.6486,45.4897" id="Fill-49" fill="#FFE000"></path>
                    <path d="M45.6486,45.4897 C37.8376,41.6527 32.1386,34.7007 27.7466,27.3697 C23.3526,20.0387 20.0126,12.1427 15.4266,4.9247 C14.0286,2.7217 12.1686,0.3777 9.5076,0.1337 C8.4336,0.0347 7.4836,0.1377 6.6436,0.4057 C0.5586,2.3437 0.3346,10.6577 0.6786,15.7087 C1.7646,31.5997 6.9216,49.1937 16.4756,62.3397 C17.7306,64.0657 19.1396,65.7607 20.6886,67.3427 C25.4806,72.2327 31.6166,76.0237 38.7066,76.2277 C47.8596,76.4927 55.4226,68.2207 57.6366,60.2347 C60.0006,51.7087 52.1516,48.6837 45.6486,45.4897" id="Stroke-51" stroke="#3E3A39" stroke-width="5" stroke-linecap="round"></path>
                </g>
                <path d="M180.9581,0.8363 C174.5411,2.9483 174.3041,12.0153 174.6681,17.5233 C175.8131,34.8513 181.2511,54.0353 191.3271,68.3693 C196.7441,76.0763 204.8771,83.2193 214.7701,83.5143 C224.4231,83.8013 232.3981,74.7823 234.7331,66.0733 C237.2261,56.7773 228.9481,53.4803 222.0911,49.9963 C213.8541,45.8133 207.8441,38.2323 203.2121,30.2373 C198.5791,22.2443 195.0571,13.6353 190.2211,5.7633 C188.7451,3.3623 186.7841,0.8063 183.9791,0.5393 C182.8461,0.4323 181.8441,0.5453 180.9581,0.8363" id="Fill-53" fill="#FFE000"></path>
                <path d="M180.9581,0.8363 C174.5411,2.9483 174.3041,12.0153 174.6681,17.5233 C175.8131,34.8513 181.2511,54.0353 191.3271,68.3693 C196.7441,76.0763 204.8771,83.2193 214.7701,83.5143 C224.4231,83.8013 232.3981,74.7823 234.7331,66.0733 C237.2261,56.7773 228.9481,53.4803 222.0911,49.9963 C213.8541,45.8133 207.8441,38.2323 203.2121,30.2373 C198.5791,22.2443 195.0571,13.6353 190.2211,5.7633 C188.7451,3.3623 186.7841,0.8063 183.9791,0.5393 C182.8461,0.4323 181.8441,0.5453 180.9581,0.8363 Z" id="Stroke-55" stroke="#3E3A39" stroke-width="5" stroke-linecap="round"></path>
                <path d="M295.5031,105.2992 C295.1531,105.1572 294.7121,105.0702 294.1691,105.0502 C278.4821,104.4992 262.6581,109.9352 252.0291,120.3242 C251.4081,120.9312 250.7681,121.6522 250.8521,122.4682 C250.9781,123.6982 252.5881,124.2952 253.9521,124.5142 C259.1481,125.3492 264.5191,124.5342 269.5611,123.1412 C279.2001,120.4762 288.0851,115.6692 295.1841,109.2782 C296.7271,107.8892 297.1781,105.9802 295.5031,105.2992" id="Fill-57" fill="#FFE000"></path>
                <path d="M251.9835,117.2484 C264.2125,106.7924 284.3045,99.1614 300.0285,106.3324 C301.5875,107.0434 302.9525,108.3794 303.2075,110.0404 C303.4325,111.5064 302.7605,112.9924 301.7655,114.1104 C299.1555,117.0484 295.0075,119.2284 291.8345,121.5674 C279.4075,130.7264 265.8825,140.6754 249.6335,133.7904" id="Stroke-59" stroke="#3E3A39" stroke-width="4.941" stroke-linecap="round"></path>
                <path d="M301.7657,114.1107 C295.0467,121.4077 291.3917,131.4657 283.2257,137.4877 C272.5697,145.3457 257.4557,140.1587 247.4007,133.8127" id="Stroke-61" stroke="#3E3A39" stroke-width="4.941" stroke-linecap="round"></path>
                <path d="M76.922,106.4379 C67.263,102.9909 56.694,102.1809 47.591,106.3329 C46.032,107.0429 44.667,108.3789 44.412,110.0409 C44.187,111.5059 44.859,112.9929 45.854,114.1109 C48.464,117.0479 52.611,119.2289 55.785,121.5679 C68.212,130.7259 81.736,140.6749 97.985,133.7909" id="Stroke-63" stroke="#3E3A39" stroke-width="4.941" stroke-linecap="round"></path>
                <path d="M45.8536,114.1107 C52.5726,121.4077 56.2276,131.4657 64.3936,137.4877 C75.0496,145.3457 90.1636,140.1587 100.2186,133.8127" id="Stroke-65" stroke="#3E3A39" stroke-width="4.941" stroke-linecap="round"></path>
                <g id="Group-70" transform="translate(80.000000, 62.286000)">
                    <path d="M0.1261,15.4429 C0.1261,15.4429 12.1321,14.0359 14.3391,0.6889" id="Fill-67" fill="#FFFFFF"></path>
                    <path d="M0.1261,15.4429 C0.1261,15.4429 12.1321,14.0359 14.3391,0.6889" id="Stroke-69" stroke="#3E3A39" stroke-width="5" stroke-linecap="round"></path>
                </g>
                <g id="Group-74" transform="translate(68.000000, 51.286000)">
                    <path d="M0.214,11.689 C0.214,11.689 11.277,10.764 14.215,0.698" id="Fill-71" fill="#FFFFFF"></path>
                    <path d="M0.214,11.689 C0.214,11.689 11.277,10.764 14.215,0.698" id="Stroke-73" stroke="#3E3A39" stroke-width="5" stroke-linecap="round"></path>
                </g>
                <path d="M197.0568,75.1234 C197.0568,75.1234 211.1638,75.7154 214.4708,59.9174" id="Stroke-75" stroke="#3E3A39" stroke-width="5" stroke-linecap="round"></path>
                <g id="Group-80" transform="translate(187.000000, 49.286000)">
                    <path d="M0.881,13.689 C0.881,13.689 13.511,10.483 14.98,0.087" id="Fill-77" fill="#FFFFFF"></path>
                    <path d="M0.881,13.689 C0.881,13.689 13.511,10.483 14.98,0.087" id="Stroke-79" stroke="#3E3A39" stroke-width="5" stroke-linecap="round"></path>
                </g>
                <path d="M124.2511,243.3236 L155.7951,243.3236 L187.3401,243.3236 C207.0561,243.3236 223.1871,227.1926 223.1871,207.4766 L223.1871,193.1956 C223.1871,177.0006 209.9361,163.7496 193.7401,163.7496 L155.7951,163.7496 L117.8511,163.7496 C101.6551,163.7496 88.4041,177.0006 88.4041,193.1956 L88.4041,207.4766 C88.4041,227.1926 104.5351,243.3236 124.2511,243.3236" id="Fill-81" fill="#FFFFFF"></path>
                <path d="M124.2511,243.3236 L155.7951,243.3236 L187.3401,243.3236 C207.0561,243.3236 223.1871,227.1926 223.1871,207.4766 L223.1871,193.1956 C223.1871,177.0006 209.9361,163.7496 193.7401,163.7496 L155.7951,163.7496 L117.8511,163.7496 C101.6551,163.7496 88.4041,177.0006 88.4041,193.1956 L88.4041,207.4766 C88.4041,227.1926 104.5351,243.3236 124.2511,243.3236 Z" id="Stroke-83" stroke="#3E3A39" stroke-width="5" stroke-linecap="round"></path>
                <path d="M80.88,188.1849 C85.397,200.6289 100.424,196.7289 109.56,195.2989 C119.882,193.6829 130.288,191.6609 140.808,192.4279 C151.382,193.1999 161.901,195.4359 172.251,198.1099 C188.246,202.2419 203.66,201.9349 216.198,189.6599" id="Stroke-85" stroke="#3E3A39" stroke-width="4.805" stroke-linecap="round"></path>
                <path d="M129.8898,171.1898 L129.8898,177.8028" id="Stroke-87" stroke="#3E3A39" stroke-width="5" stroke-linecap="round"></path>
                <path d="M160.0109,171.1898 L160.0109,177.8028" id="Stroke-89" stroke="#3E3A39" stroke-width="5" stroke-linecap="round"></path>
                <path d="M262.213,194.3031 C234.691,221.8641 234.185,273.9041 206.447,306.9101 C175.93,343.2271 148.522,380.8161 174.562,428.7861" id="Stroke-91" stroke="#3E3A39" stroke-width="5" stroke-linecap="round"></path>
            </g>
        </g>
    </g>
</svg>