<?xml version="1.0" encoding="UTF-8"?>
<svg width="365px" height="481px" viewBox="0 0 365 481" version="1.1" xmlns="http://www.w3.org/2000/svg" xmlns:xlink="http://www.w3.org/1999/xlink">
    <!-- Generator: sketchtool 49.2 (51160) - http://www.bohemiancoding.com/sketch -->
    <title>BA00D2ED-B5B1-447E-B90F-30C31783E853</title>
    <desc>Created with sketchtool.</desc>
    <defs></defs>
    <g id="Symbols" stroke="none" stroke-width="1" fill="none" fill-rule="evenodd">
        <g id="DOLPHIN_IMAGE">
            <g id="Page-1">
                <path d="M268.7385,163.9691 C257.7605,134.3561 251.3685,101.0721 228.5015,79.2871 C219.8175,71.0141 209.2745,64.9961 198.7815,59.1881 C172.5485,44.6651 145.8875,30.9151 118.8465,17.9601 C108.8255,13.1581 97.0585,8.4341 87.0185,13.1971 C78.5805,31.7771 95.5865,52.8181 92.9135,73.0481 C91.9315,80.4781 88.3405,87.2591 85.5785,94.2261 C77.5085,114.5891 76.4915,137.6721 82.7385,158.6661 C86.4735,171.2151 92.7175,184.6641 87.6555,196.7401 C81.5435,211.3221 63.1565,214.9171 48.4815,220.8041 C27.0925,229.3861 9.5345,247.0121 0.9015,268.3651 L0.9015,480.2271 L364.5965,480.2271 L364.5965,309.3531 C363.5355,308.1311 362.4985,306.9081 361.4945,305.6961 C325.3025,261.9891 288.4615,217.1771 268.7385,163.9691" id="Fill-1" fill="#FFFFFF"></path>
                <path d="M92.7727,74.141 C92.0837,73.908 91.4337,73.6 90.8147,73.236 C90.3547,72.097 89.6217,70.914 88.6407,69.647 C87.8537,68.63 86.4407,69 85.7047,69.848 C84.4017,68.295 81.5437,70.18 82.5447,72.322 C82.6777,72.604 82.8167,72.858 82.9567,73.114 C82.7387,73.339 82.5647,73.634 82.4767,74.026 C81.5247,78.272 80.1647,82.214 78.2307,86.123 C77.9927,86.606 77.9597,87.073 78.0577,87.493 C75.9297,90.789 74.3087,94.338 73.0477,98.053 C71.3407,101.836 70.0987,105.737 69.5567,109.665 C69.2097,112.183 72.0967,122.921 72.8477,120.466 C75.8977,110.495 81.2687,88.715 93.1777,77.283 C94.0187,76.474 93.9667,74.659 92.7727,74.141" id="Fill-3" fill="#FFE000"></path>
                <path d="M242.8635,94.3441 C243.5615,95.3921 243.5915,95.4031 243.3905,95.0971 C243.2565,94.9061 243.1255,94.7111 242.9925,94.5191 C242.9495,94.4591 242.9065,94.4011 242.8635,94.3441" id="Fill-5" fill="#FFE000"></path>
                <path d="M109.0422,7.0375 C114.4432,8.1435 115.5482,11.3605 120.8502,12.8605 C121.4462,15.7955 127.1232,16.5625 129.5442,18.4755 C146.7912,32.0975 164.0442,45.8175 182.4572,57.8525 C198.2012,68.1435 216.4422,74.3555 231.5432,85.3975 C247.1042,96.7755 251.3482,115.8025 252.0772,134.0495 C252.2912,139.4005 252.7652,145.2555 253.0392,151.2075 C257.3782,164.4475 256.9162,178.3085 256.8022,192.1445 C256.6752,207.5395 258.3592,221.9255 266.9482,235.1145 C273.6242,245.3645 285.1422,253.7805 289.1782,265.5495 C292.0012,273.7875 292.2762,282.8335 283.9102,287.8685 C266.6492,298.2575 230.9742,287.7345 216.2132,302.9225 C204.1182,315.3655 216.1902,338.8745 223.9672,351.6635 C231.3382,363.7865 243.8512,371.3185 254.4142,380.7545 C263.4172,388.7955 273.3002,395.1795 283.5532,401.4465 C319.4252,423.3765 283.5692,462.8315 253.6012,479.8605 L363.5392,479.8605 L363.5392,250.8125 C362.3822,249.0065 361.2712,247.1705 360.1742,245.3645 C350.5882,229.6025 340.9472,216.2725 323.8682,203.9955 C307.2252,192.0295 301.1472,172.9745 301.1472,152.5675 C298.7112,139.2245 298.1492,125.6395 295.6032,112.3235 C287.9302,72.1965 265.3062,29.9625 223.5732,17.8095 C210.5962,14.0305 196.6532,9.0265 182.9482,9.6065 C171.3782,10.0975 161.3172,16.6375 149.4722,15.1065 C132.5722,12.9235 117.2992,0.2205 100.6732,1.6185 C102.6852,4.2905 105.4972,6.3105 109.0422,7.0375" id="Fill-7" fill="#FFE000"></path>
                <path d="M17.8869,479.8607 L196.3449,479.8607 C190.6469,471.9087 188.1809,461.6437 187.1219,451.8387 C185.3089,435.0427 187.1779,418.0127 189.1259,401.3157 C191.0329,384.9637 193.5539,368.0147 190.9839,351.6187 C189.4299,341.7117 186.0499,331.4407 180.4239,323.0867 C175.6289,315.9667 168.1509,307.7227 159.2969,306.0727 C149.6619,304.2777 143.3199,313.8817 138.6449,320.7857 C133.6519,328.1607 129.4559,336.0377 124.4909,343.4257 C112.8999,360.6727 93.0339,369.6437 77.6309,382.8127 C61.0639,396.9777 47.7169,414.2017 33.6639,430.7377 C27.2889,438.2387 19.2639,445.3237 14.2819,453.8747 C9.6139,461.8837 12.6179,470.5357 16.8589,478.1137 C17.1909,478.7057 17.5389,479.2827 17.8869,479.8607" id="Fill-9" fill="#FFE000"></path>
                <path d="M104.966,186.682 C102.737,185.174 99.795,185.43 97.132,185.822 C75.64,188.983 55.003,197.389 37.195,209.799 C29.56,215.12 9.099,226.494 1.492,239.086 L1.492,256.545 C2.213,257.523 3.071,258.495 4.094,259.459 C19.397,273.88 44.588,243.2 52.536,231.945 C58.496,223.502 64.596,215.172 73.182,210.029 C82.189,204.633 93.171,205.219 102.281,200.125 C107.062,197.453 109.501,189.751 104.966,186.682" id="Fill-11" fill="#FFE000"></path>
                <path d="M313.0617,228.6761 C310.3327,224.2381 306.8487,222.3481 302.8727,228.1721 C301.2147,230.5991 305.7817,243.7741 306.1997,246.9881 C307.7827,259.1391 308.4337,273.1831 301.4157,283.9011 C295.9147,292.3021 282.8257,293.1561 269.8917,293.3111 C266.8627,293.3531 263.5497,293.1901 260.0507,293.0231 C248.0307,292.4471 234.4087,291.7961 223.6657,298.7621 C218.0237,302.4201 214.3347,307.2251 212.7837,312.8541 L225.8697,312.8541 C226.8877,311.3861 228.3047,310.0551 230.1927,308.8301 C237.6947,303.9671 248.7677,304.4961 259.4777,305.0091 C263.1597,305.1841 266.6257,305.3461 270.0347,305.3111 C287.0337,305.1361 305.1907,303.3061 313.1917,286.3731 C318.8407,274.4191 320.8857,260.8131 319.2997,247.7041 C318.9617,244.9091 316.6767,234.5561 313.0617,228.6761" id="Fill-13" fill="#FFFFFF"></path>
                <path d="M90.6262,458.5336 C60.0372,436.6536 57.4692,425.2976 57.2872,424.1616 C57.4902,420.5376 54.9252,417.2726 51.2622,416.6826 C47.3552,416.0546 43.6662,418.7126 43.0352,422.6266 C42.7232,424.5616 42.6442,430.0166 48.6322,438.8576 C55.8312,449.4856 69.3242,461.5476 88.7362,474.7056 C89.3342,475.1106 89.9722,475.4096 90.6262,475.6136 L90.6262,458.5336 Z" id="Fill-15" fill="#FFFFFF"></path>
                <path d="M57.2073,424.8988 C57.2073,424.9028 57.2063,424.9068 57.2053,424.9098 C57.2063,424.9068 57.2073,424.9028 57.2073,424.8988" id="Fill-17" fill="#FFFFFF"></path>
                <path d="M57.2092,424.889 C57.2082,424.892 57.2082,424.895 57.2072,424.898 C57.2082,424.895 57.2082,424.892 57.2092,424.889" id="Fill-19" fill="#FFFFFF"></path>
                <path d="M187.9367,404.1693 C185.0607,428.4273 182.1227,453.2723 194.2887,479.8603 L210.4477,479.8603 C196.4577,454.3953 199.2507,430.6543 202.1907,405.8583 C205.8567,374.9393 209.6467,342.9653 181.3797,307.8643 C178.8937,304.7773 174.3777,304.2913 171.2887,306.7763 C168.2017,309.2633 167.7147,313.7803 170.2007,316.8673 C194.6827,347.2683 191.4067,374.9063 187.9367,404.1693" id="Fill-23" fill="#FFFFFF"></path>
                <path d="M138.2248,464.3236 C137.1778,426.8766 107.2718,373.0946 105.9768,370.7846 C104.2228,367.6536 100.2618,366.5356 97.1298,368.2926 C93.9978,370.0466 92.8818,374.0076 94.6358,377.1386 C94.9368,377.6756 124.0998,430.1346 125.2178,464.3236 L138.2248,464.3236 Z" id="Fill-25" fill="#FFFFFF"></path>
                <path d="M104.5793,185.0824 C54.1473,188.1444 16.2323,215.2644 2.5003,248.6944" id="Stroke-27" stroke="#3E3A39" stroke-width="5" stroke-linecap="round"></path>
                <path d="M321.3674,202.4974 C341.3594,214.0974 356.0484,230.4574 363.5394,248.6944" id="Stroke-29" stroke="#3E3A39" stroke-width="5" stroke-linecap="round"></path>
                <path d="M240.5998,123.7464 L103.6958,123.7464 C104.1738,172.9244 104.6248,173.7044 105.0358,174.3634 C108.7938,180.3924 105.1358,178.7064 104.6018,184.9174 C104.5968,184.9744 104.5848,185.0264 104.5798,185.0824 C113.9278,226.7344 91.6158,263.4194 170.5948,275.4724 C214.3188,282.1444 235.4398,269.1974 241.0478,239.0574 L241.0478,176.1004 C240.3728,174.9084 240.2258,173.4184 240.5998,123.7464" id="Fill-31" fill="#FFFFFF"></path>
                <path d="M244.5608,206.264 C244.5608,220.67 232.8828,232.348 218.4768,232.348 C204.0708,232.348 192.3918,220.67 192.3918,206.264 C192.3918,191.858 204.0708,180.18 218.4768,180.18 C232.8828,180.18 244.5608,191.858 244.5608,206.264" id="Fill-33" fill="#FFE000"></path>
                <path d="M155.3127,83.7513 L155.3127,94.7423 C155.3127,97.9603 160.3127,97.9653 160.3127,94.7423 L160.3127,83.7513 C160.3127,80.5333 155.3127,80.5283 155.3127,83.7513" id="Fill-35" fill="#3E3A39"></path>
                <path d="M157.7024,81.141 L157.7024,96.289" id="Stroke-37" stroke="#3E3A39" stroke-width="5" stroke-linecap="round"></path>
                <path d="M150.3557,103.4398 C150.3557,103.4398 135.3867,106.5308 131.2937,117.2378 C127.1987,127.9448 131.4387,134.2248 125.8987,143.3058 C120.3587,152.3868 116.9577,156.8058 107.6477,156.8058" id="Stroke-39" stroke="#3E3A39" stroke-width="5" stroke-linecap="round"></path>
                <path d="M165.9924,101.3021 C165.9924,101.3021 184.4894,98.6961 186.6044,114.7401 C188.7194,130.7821 198.8884,142.8401 211.2224,143.3061 C223.5574,143.7721 229.6094,146.3261 236.5924,151.1011" id="Stroke-41" stroke="#3E3A39" stroke-width="5" stroke-linecap="round"></path>
                <path d="M105.0354,174.3636 L105.0354,228.3316 C105.0354,228.3316 103.1244,253.6316 129.3584,253.6316" id="Stroke-43" stroke="#3E3A39" stroke-width="5" stroke-linecap="round"></path>
                <path d="M137.4563,259.682 C137.4563,259.682 147.8503,281.94 177.7903,273.604" id="Stroke-45" stroke="#3E3A39" stroke-width="5" stroke-linecap="round"></path>
                <path d="M153.7326,169.1898 C153.7326,169.1898 143.3496,194.6508 143.3496,213.6678 L165.9926,213.6678" id="Stroke-47" stroke="#3E3A39" stroke-width="5" stroke-linecap="round" stroke-linejoin="round"></path>
                <path d="M139.1848,174.8714 L172.4978,174.8714" id="Stroke-49" stroke="#3E3A39" stroke-width="5" stroke-linecap="round"></path>
                <path d="M178.3518,154.2591 L186.4328,154.2591" id="Stroke-51" stroke="#3E3A39" stroke-width="5" stroke-linecap="round"></path>
                <path d="M133.4416,154.2591 L141.5226,154.2591" id="Stroke-53" stroke="#3E3A39" stroke-width="5" stroke-linecap="round"></path>
                <path d="M195.3401,179.4046 C195.3401,183.5256 191.9991,186.8666 187.8771,186.8666 C183.7561,186.8666 180.4151,183.5256 180.4151,179.4046 C180.4151,175.2836 183.7561,171.9416 187.8771,171.9416 C191.9991,171.9416 195.3401,175.2836 195.3401,179.4046 Z" id="Stroke-55" stroke="#3E3A39" stroke-width="5" stroke-linecap="round"></path>
                <path d="M140.7287,179.4046 C140.7287,183.5256 137.3877,186.8666 133.2667,186.8666 C129.1447,186.8666 125.8037,183.5256 125.8037,179.4046 C125.8037,175.2836 129.1447,171.9416 133.2667,171.9416 C137.3877,171.9416 140.7287,175.2836 140.7287,179.4046 Z" id="Stroke-57" stroke="#3E3A39" stroke-width="5" stroke-linecap="round"></path>
                <path d="M241.9797,162.8031 L241.9797,232.6831" id="Stroke-59" stroke="#3E3A39" stroke-width="5" stroke-linecap="round"></path>
                <path d="M165.9924,236.1683 L186.6044,236.1683" id="Stroke-61" stroke="#3E3A39" stroke-width="5" stroke-linecap="round"></path>
                <path d="M194.7688,480.223 C166.6818,412.413 218.1728,382.882 172.4978,315.411 C147.7288,278.821 139.7558,344.609 101.6948,367.05 C98.0578,369.194 94.6068,371.508 91.3068,373.962 C91.3068,373.962 122.7548,430.075 122.7548,466.31" id="Stroke-63" stroke="#3E3A39" stroke-width="4.782" stroke-linecap="round" stroke-linejoin="round"></path>
                <path d="M66.0627,397.4916 C71.0727,391.9926 76.2517,386.6696 81.8207,381.7126 C81.8207,381.7126 81.6767,390.6886 92.7627,420.2286" id="Stroke-65" stroke="#3E3A39" stroke-width="4.782" stroke-linecap="round" stroke-linejoin="round"></path>
                <path d="M15.8069,478.8666 C13.4239,475.5406 11.7199,472.1306 10.7429,468.8526 C9.9799,466.2946 9.3709,463.5686 9.6179,460.8496 C10.1939,454.4936 15.0029,450.3986 19.2469,446.9706 C33.2909,435.6246 44.6379,422.0636 56.1199,408.7676" id="Stroke-67" stroke="#3E3A39" stroke-width="4.782" stroke-linecap="round"></path>
                <path d="M56.1203,408.7689 C56.1203,408.7689 48.3053,432.1029 92.7633,462.9789 C92.7633,462.9789 67.2703,446.8279 66.0633,397.4929" id="Stroke-69" stroke="#3E3A39" stroke-width="4.782" stroke-linecap="round" stroke-linejoin="round"></path>
                <path d="M157.7209,81.2992 C189.0219,77.4862 223.0879,89.3092 242.6649,113.5532 C250.0319,122.6752 255.5749,135.7682 254.9869,148.1562" id="Stroke-71" stroke="#3E3A39" stroke-width="5.266" stroke-linecap="round"></path>
                <path d="M92.552,151.3861 C88.889,135.2841 97.248,117.3091 108.619,105.1761 C118.378,94.7641 130.696,87.8091 144.062,84.0311" id="Stroke-73" stroke="#3E3A39" stroke-width="5.266" stroke-linecap="round"></path>
                <path d="M301.2658,220.8373 C302.5548,238.6093 309.1358,259.6583 301.6888,276.8383 C292.0398,299.0903 261.6038,292.2933 242.5738,292.5483 C218.2708,292.8733 203.9638,309.0733 213.4278,333.5473 C219.2678,348.6493 232.1988,362.2233 244.2878,372.6893 C269.3668,394.3993 302.6628,415.3123 337.1318,411.9733" id="Stroke-75" stroke="#3E3A39" stroke-width="5" stroke-linecap="round"></path>
                <path d="M92.5705,74.4896 C87.8615,58.4976 74.9895,43.1266 75.9775,25.8666 C76.9655,8.6356 95.0475,-0.8934 110.7825,0.6656 C111.7275,0.7596 112.6695,0.8826 113.6065,1.0326 C143.5805,5.8326 166.7905,34.2226 192.2335,43.1166" id="Stroke-77" stroke="#3E3A39" stroke-width="5" stroke-linecap="round"></path>
                <path d="M81.2688,12.1078 C92.4538,-4.2292 122.4698,12.7308 130.5248,18.9068 C157.8038,39.8208 172.4978,62.0178 197.0698,63.6288" id="Stroke-79" stroke="#3E3A39" stroke-width="5" stroke-linecap="round"></path>
                <path d="M150.7844,16.3783 C172.3024,9.0083 195.7784,6.9613 217.2474,15.2643 C255.1424,29.9193 283.3764,64.8993 293.3254,103.8623 C293.6914,105.2943 294.0324,106.7323 294.3484,108.1763 C297.5524,122.8013 298.8664,137.7693 299.8014,152.6863 C300.7144,167.2603 303.0784,182.4753 311.8714,194.1343" id="Stroke-81" stroke="#3E3A39" stroke-width="5" stroke-linecap="round"></path>
                <path d="M82.758,163.0726 C60.806,133.3796 71.366,93.1466 83.72,70.2796" id="Stroke-83" stroke="#3E3A39" stroke-width="5" stroke-linecap="round"></path>
                <path d="M225.7688,43.2972 C222.8608,46.1012 218.1398,44.6052 215.8108,41.7942 C213.9118,39.5002 213.5708,35.6782 215.9988,33.6032 C218.1668,31.7492 221.4628,32.3882 223.7028,33.7512 C225.5948,34.9022 226.9738,37.0712 227.1838,39.2802 C227.3088,40.5872 226.9648,41.9672 226.0978,42.9522 C225.9918,43.0742 225.8818,43.1892 225.7688,43.2972" id="Fill-85" fill="#FFFFFF"></path>
                <path d="M225.7688,43.2972 C222.8608,46.1012 218.1398,44.6052 215.8108,41.7942 C213.9118,39.5002 213.5708,35.6782 215.9988,33.6032 C218.1668,31.7492 221.4628,32.3882 223.7028,33.7512 C225.5948,34.9022 226.9738,37.0712 227.1838,39.2802 C227.3088,40.5872 226.9648,41.9672 226.0978,42.9522 C225.9918,43.0742 225.8818,43.1892 225.7688,43.2972 Z" id="Stroke-87" stroke="#3E3A39" stroke-width="5"></path>
                <path d="M87.511,20.514 C78.669,42.222 105.398,63.089 100.836,76.376" id="Stroke-89" stroke="#FFE000" stroke-width="7" stroke-linecap="round"></path>
            </g>
        </g>
    </g>
</svg>