<?xml version="1.0" encoding="UTF-8"?>
<svg width="362px" height="420px" viewBox="0 0 362 420" version="1.1" xmlns="http://www.w3.org/2000/svg" xmlns:xlink="http://www.w3.org/1999/xlink">
    <!-- Generator: sketchtool 49.2 (51160) - http://www.bohemiancoding.com/sketch -->
    <title>FEACD7B4-B2FF-48D4-B223-1782ADC39ABA</title>
    <desc>Created with sketchtool.</desc>
    <defs></defs>
    <g id="Symbols" stroke="none" stroke-width="1" fill="none" fill-rule="evenodd">
        <g id="man_4">
            <g id="Page-1" transform="translate(1.000000, 1.000000)">
                <path d="M310.2697,225.9904 C310.0947,225.9714 310.1177,225.9724 310.2697,225.9904" id="Fill-1" fill="#9E9E9F"></path>
                <path d="M329.8136,233.2472 C329.7346,233.1802 329.6506,233.1112 329.5666,233.0432 C329.6256,233.2212 329.6916,233.3962 329.7636,233.5602 C329.8086,233.5222 329.8326,233.4072 329.8136,233.2472" id="Fill-3" fill="#FFE000"></path>
                <path d="M299.4415,184.3088 C285.7595,188.0258 264.3845,196.5758 253.4325,207.5278 C245.9335,215.0258 247.3425,233.0108 246.1575,242.9188 C246.0485,243.8248 245.9405,244.7298 245.8325,245.6358 C243.8225,262.4348 233.1845,288.5538 234.6905,305.7688 C235.3595,313.4128 228.6115,320.7808 225.5665,353.2558 C224.7175,353.3198 223.8705,353.3858 223.0255,353.4518 C213.5815,354.1888 204.1815,355.2728 195.1265,358.1758 C185.8925,361.1358 176.9885,365.3008 167.2835,366.5238 C159.0365,367.5628 150.6285,366.8328 142.6285,364.6268 C131.2705,361.4958 120.9165,355.4308 112.7995,347.0858 C112.5625,332.9758 114.4095,318.1728 112.6825,303.8598 C111.0035,289.9448 104.7525,277.0498 103.0535,263.1338 C101.7395,252.3548 102.9695,241.4058 101.5745,230.5438 C100.9365,225.5808 99.3375,221.8158 96.8245,218.9708 C101.8465,227.8108 100.1265,237.2738 97.5055,246.8328 C97.5925,247.2018 97.6485,247.5908 97.6485,248.0188 C97.6485,254.3538 97.3145,260.7978 97.7275,267.1198 C97.9905,271.1478 98.8555,275.4738 97.7965,279.4628 C95.7425,287.1998 85.6755,287.2038 79.2715,287.0138 C74.6335,286.8768 69.0025,286.7658 63.8435,285.8538 C63.6925,286.0448 63.0265,286.0798 61.1485,286.1708 C59.2705,286.2628 57.8955,286.0238 56.8345,285.5148 C56.6615,285.5318 56.5015,285.5658 56.3185,285.5658 C54.8925,285.5658 53.8135,285.0388 53.0515,284.2488 C50.2325,283.8608 48.9695,281.2818 49.2555,278.9128 C47.6845,276.9498 47.8785,273.6968 49.8245,272.0438 C49.6885,271.7888 49.5615,271.5378 49.4145,271.2778 C48.3015,269.3278 48.7115,267.4598 49.8095,266.1238 C49.6575,258.3218 48.0355,250.9548 48.7925,243.0418 C49.0695,240.1388 42.6485,238.7498 35.5375,237.5038 C34.0385,237.7208 32.5395,237.9548 31.0415,238.2228 C26.6655,239.0088 20.6625,240.5058 16.3455,238.3088 C15.0265,238.0888 14.0645,237.3838 13.4505,236.4458 C11.0705,235.3628 10.3405,232.3838 11.2645,230.1228 C11.2415,229.9888 11.2145,229.8528 11.1945,229.7188 C11.1375,229.2968 11.0815,228.8758 11.0245,228.4548 C11.2385,227.5778 11.0505,227.3768 10.4625,227.8548 C9.3925,226.7258 7.9025,226.2888 6.9195,224.9298 C3.4125,220.0778 5.8855,213.0918 9.8465,209.2498 C9.3135,208.0818 8.8695,206.8778 8.5605,205.6258 C5.5005,206.9998 2.6095,208.8178 0.0005,211.0088 L0.0005,418.3768 L360.0005,418.3028 L360.0005,200.5548 C359.5055,198.8638 337.3105,174.0228 299.4415,184.3088" id="Fill-5" fill="#9E9E9F"></path>
                <path d="M261.4327,207.5275 C261.4327,207.5275 308.5987,158.2755 359.9787,200.5545" id="Stroke-7" stroke="#3E3A39" stroke-width="5" stroke-linecap="round"></path>
                <path d="M33.1251,23.0041 C28.7931,27.8331 27.7721,35.9041 33.0631,40.4231 C36.8901,43.6921 44.8841,45.4781 47.7591,40.0821 C50.3121,35.2901 43.7251,29.6211 39.2391,32.3041 C34.5791,35.0941 35.6671,41.5071 38.6681,45.1431 C45.5911,53.5261 58.2831,49.5761 65.3991,43.6611 C70.7031,39.2521 76.9031,24.0371 65.0881,23.9151 C62.1851,23.8851 59.2821,24.9421 57.0791,26.8331 C55.6961,28.0191 54.5551,29.5991 54.3111,31.4031 C54.0671,33.2091 54.9061,35.2241 56.5651,35.9771 C59.0301,37.0941 61.8211,35.0941 63.3211,32.8421 C65.8441,29.0541 66.6421,24.1641 65.4531,19.7721 C63.5861,12.8661 54.4821,12.3701 55.2551,20.7301 C55.6471,24.9821 58.5091,28.7681 62.1931,30.9251 C67.3501,33.9431 74.2041,35.1681 80.0921,34.2221 C86.7551,33.1501 93.6911,27.3171 90.7221,19.7811 C89.7291,17.2621 85.3431,13.4511 82.6461,16.0151 C79.9911,18.5391 82.2231,23.6771 84.3211,25.8081 C92.8521,34.4711 104.9221,21.3211 104.3881,12.3101 C103.8011,2.4101 91.8631,-1.1989 83.6681,1.2321" id="Stroke-9" stroke="#3E3A39" stroke-width="5" stroke-linecap="round"></path>
                <path d="M137.0177,203.3576 C139.6237,210.8446 147.7887,215.8386 155.0177,218.1076 C163.1847,220.6696 171.7567,220.0286 179.5547,216.6276 C182.4967,215.3426 179.9547,211.0346 177.0317,212.3096 C170.9257,214.9726 164.1217,215.3976 157.6967,213.6776 C151.8777,212.1216 143.9657,208.1356 141.8387,202.0286 C140.7887,199.0076 135.9557,200.3066 137.0177,203.3576" id="Fill-11" fill="#3E3A39"></path>
                <path d="M288.59,94.6164 C287.923,89.2184 280.645,89.8374 277.153,87.4474 C271.607,83.6494 271.229,75.6114 265.418,71.2164 C261.238,68.0534 255.465,65.8464 252.369,61.5154 C249.047,56.8684 249.498,50.5154 246.34,45.7444 C242.269,39.5914 236.144,34.9264 229.824,31.2734 C223.129,27.4034 215.894,24.5984 209.787,22.7724 C207.098,21.9684 204.884,20.0974 202.654,18.3924 C194.777,12.3684 184.915,7.5024 176.332,14.8724 C172.77,17.9304 169.463,21.7934 164.863,22.7364 C156.795,24.3894 149.865,20.5804 141.494,23.5914 C133.036,26.6324 125.327,32.2774 119.805,39.3614 C114.415,46.2744 109.209,53.8614 101.355,57.7524 C96.111,60.3484 90.057,61.0804 84.985,63.9984 C79.856,66.9494 72.35,72.2354 72.037,78.1444 C71.758,83.4334 74.718,88.1404 79.397,90.4704 C79.384,90.8314 79.367,91.1914 79.367,91.5534 C75.798,92.8784 73.305,97.2244 73.809,101.1504 C74.39,105.6824 75.108,111.6134 78.782,114.3294 C80.78,115.8054 89.359,115.7714 91.491,117.0514 C95.885,116.7774 99.905,125.5794 102.492,129.7864 C106.214,135.8394 102.566,134.1304 101.993,140.3384 C101.988,140.3944 101.977,140.4474 101.971,140.5024 C111.065,182.2124 88.529,218.7594 167.435,231.2934 C214.082,238.7034 235.093,223.5844 239.078,188.9394 C239.279,187.1884 239.649,185.6044 240.15,184.1504 C239.616,183.4254 239.308,182.4754 239.361,181.3014 C239.502,178.2674 239.474,174.6764 240.307,171.4884 C238.49,168.5634 239.755,163.8524 244.096,164.1994 C244.646,164.2434 245.237,164.3354 245.853,164.4414 C247.045,163.8954 248.319,163.4904 249.592,162.9534 C252.293,161.8134 254.463,159.9194 257.385,159.2614 C257.516,159.0024 257.645,158.7514 257.776,158.5124 C258.435,157.3074 259.358,156.6204 260.36,156.3344 C261.389,151.3914 261.844,145.8534 259.058,142.2324 C256.706,139.1764 252.832,136.2904 249.127,135.3654 C247.658,134.9984 246.144,134.6154 244.828,133.9334 C244.164,134.3284 243.367,134.5794 242.402,134.5734 C236.711,134.5394 236.371,126.3494 241.248,125.2074 C240.821,122.8944 241.191,120.4794 242.771,118.1714 C243.288,117.4144 243.914,116.8854 244.592,116.5414 C244.671,115.5264 245.559,115.0944 247.58,115.4494 C281.953,119.3194 289.207,99.6124 288.59,94.6164" id="Fill-13" fill="#FFFFFF"></path>
                <path d="M241.8204,162.5373 C241.7324,176.9423 229.9834,188.5503 215.5774,188.4623 C201.1724,188.3743 189.5644,176.6253 189.6524,162.2193 C189.7404,147.8133 201.4904,136.2063 215.8954,136.2943 C230.3004,136.3823 241.9084,148.1313 241.8204,162.5373" id="Fill-15" fill="#9E9E9F"></path>
                <path d="M155.8575,21.925 C146.5805,17 135.2685,19.255 127.3155,25.678 C118.3375,32.93 116.5305,45.438 107.7205,52.797 C97.8805,61.016 81.5515,58.43 74.5045,70.641 C66.8385,83.923 77.5695,98.577 92.0265,98.665" id="Stroke-17" stroke="#3E3A39" stroke-width="5" stroke-linecap="round"></path>
                <path d="M87.4855,118.1349 C75.4985,116.4399 70.8325,105.1099 75.5355,94.6559" id="Stroke-19" stroke="#3E3A39" stroke-width="5" stroke-linecap="round"></path>
                <path d="M165.046,19.3771 C168.692,12.2581 174.54,6.9451 183.094,6.9801 C199.188,7.0451 202.614,17.6411 212.335,19.2441 C224.543,21.2571 235.148,27.8501 243.932,36.3531 C254.736,46.8111 255.973,63.8281 256.007,78.0531" id="Stroke-21" stroke="#3E3A39" stroke-width="5" stroke-linecap="round"></path>
                <path d="M262.0206,66.1838 C269.4936,68.6688 271.7556,71.7498 274.0656,78.6078 C276.3646,85.4308 280.1246,90.7758 287.9836,90.0828" id="Stroke-23" stroke="#3E3A39" stroke-width="5" stroke-linecap="round"></path>
                <path d="M155.7257,36.8869 L155.6327,52.0349" id="Stroke-25" stroke="#3E3A39" stroke-width="5" stroke-linecap="round"></path>
                <path d="M148.2433,59.1408 C148.2433,59.1408 133.2573,62.1408 129.0973,72.8228 C124.9373,83.5038 129.1393,89.8098 123.5443,98.8578 C117.9483,107.9048 114.5203,112.3018 105.2113,112.2448" id="Stroke-27" stroke="#3E3A39" stroke-width="5" stroke-linecap="round"></path>
                <path d="M163.8927,57.0988 C163.8927,57.0988 182.4057,54.6058 184.4227,70.6618 C186.4397,86.7168 196.5357,98.8358 208.8677,99.3768 C221.1987,99.9178 227.2347,102.5098 234.1877,107.3268 C241.1417,112.1428 249.0207,115.9148 255.7927,113.1628" id="Stroke-29" stroke="#3E3A39" stroke-width="5" stroke-linecap="round"></path>
                <path d="M102.4923,129.7863 L102.1633,183.7543 C102.1633,183.7543 100.0973,209.0423 126.3323,209.2013" id="Stroke-31" stroke="#3E3A39" stroke-width="5" stroke-linecap="round"></path>
                <path d="M134.3917,215.3019 C134.3917,215.3019 144.6497,237.6219 174.6407,229.4689" id="Stroke-33" stroke="#3E3A39" stroke-width="5" stroke-linecap="round"></path>
                <path d="M151.2189,124.9103 C151.2189,124.9103 140.6819,150.3073 140.5669,169.3233 L163.2079,169.4613" id="Stroke-35" stroke="#3E3A39" stroke-width="5" stroke-linecap="round" stroke-linejoin="round"></path>
                <path d="M136.6368,130.5031 L169.9498,130.7061" id="Stroke-37" stroke="#3E3A39" stroke-width="5" stroke-linecap="round"></path>
                <path d="M192.7638,135.3781 C192.7388,139.4991 189.3768,142.8201 185.2558,142.7951 C181.1348,142.7701 177.8148,139.4081 177.8388,135.2871 C177.8648,131.1661 181.2258,127.8451 185.3468,127.8701 C189.4688,127.8961 192.7888,131.2571 192.7638,135.3781 Z" id="Stroke-39" stroke="#3E3A39" stroke-width="5" stroke-linecap="round"></path>
                <path d="M138.1544,135.0451 C138.1294,139.1671 134.7674,142.4871 130.6464,142.4621 C126.5244,142.4381 123.2044,139.0761 123.2294,134.9541 C123.2544,130.8331 126.6164,127.5131 130.7374,127.5371 C134.8584,127.5631 138.1784,130.9241 138.1544,135.0451 Z" id="Stroke-41" stroke="#3E3A39" stroke-width="5" stroke-linecap="round"></path>
                <path d="M239.504,119.0607 L239.078,188.9397" id="Stroke-43" stroke="#3E3A39" stroke-width="5" stroke-linecap="round"></path>
                <path d="M246.4083,135.6867 L239.4033,135.6437 L239.2393,162.5217 L246.2443,162.5647 C253.6363,162.6097 259.7203,156.5987 259.7643,149.2077 C259.8093,141.8157 253.8003,135.7317 246.4083,135.6867 Z" id="Stroke-45" stroke="#3E3A39" stroke-width="5" stroke-linecap="round"></path>
                <path d="M239.338,146.2892 L247.392,146.3392" id="Stroke-47" stroke="#3E3A39" stroke-width="5" stroke-linecap="round"></path>
                <path d="M178.2931,203.383 L178.2931,199.935 C178.2931,196.292 175.3131,193.312 171.6691,193.312 C168.0261,193.312 165.0461,196.292 165.0461,199.935 L165.0461,203.383" id="Stroke-49" stroke="#3E3A39" stroke-width="5" stroke-linecap="round"></path>
                <path d="M140.0831,111.2472 C140.0831,108.4842 137.8221,106.2252 135.0611,106.2252 C132.2981,106.2252 130.0381,108.4842 130.0381,111.2472" id="Stroke-51" stroke="#3E3A39" stroke-width="5" stroke-linecap="round"></path>
                <path d="M174.9991,106.2248 C174.9991,108.9878 177.2601,111.2468 180.0211,111.2468 C182.7831,111.2468 185.0441,108.9878 185.0441,106.2248" id="Stroke-53" stroke="#3E3A39" stroke-width="5" stroke-linecap="round"></path>
                <g id="Group-58" transform="translate(148.000000, 286.377000)">
                    <path d="M14.6964,26.3361 C14.9324,24.4981 15.2184,22.6661 15.5504,20.8431 C16.0404,18.1471 16.6014,15.3211 17.3454,12.6281 C17.7364,11.2141 18.1734,9.8071 18.7004,8.4371 C19.1854,7.1781 19.8764,5.8661 19.5384,4.4771 C19.2044,3.1001 18.0454,2.0361 16.6454,1.8201 C14.3704,1.4701 12.4054,0.9761 10.7364,0.4301 C8.7294,-0.2269 6.5494,0.7361 5.7704,2.6991 C3.5894,8.1951 1.8914,14.5131 1.2324,20.0431 C0.8544,23.2091 0.7054,26.4411 0.3574,29.6191" id="Fill-55" fill="#9E9E9F"></path>
                    <path d="M14.6964,26.3361 C14.9324,24.4981 15.2184,22.6661 15.5504,20.8431 C16.0404,18.1471 16.6014,15.3211 17.3454,12.6281 C17.7364,11.2141 18.1734,9.8071 18.7004,8.4371 C19.1854,7.1781 19.8764,5.8661 19.5384,4.4771 C19.2044,3.1001 18.0454,2.0361 16.6454,1.8201 C14.3704,1.4701 12.4054,0.9761 10.7364,0.4301 C8.7294,-0.2269 6.5494,0.7361 5.7704,2.6991 C3.5894,8.1951 1.8914,14.5131 1.2324,20.0431 C0.8544,23.2091 0.7054,26.4411 0.3574,29.6191" id="Stroke-57" stroke="#3E3A39" stroke-width="5" stroke-linecap="round"></path>
                </g>
                <path d="M124.2267,239.9162 L135.5357,260.8002 C137.4937,264.4142 142.4907,264.8912 145.0947,261.7102 L153.8607,251.0102 C155.3307,249.2152 154.6897,246.5142 152.5707,245.5702 L128.7887,234.9842 C125.6947,233.6072 122.6137,236.9372 124.2267,239.9162 Z" id="Stroke-59" stroke="#3E3A39" stroke-width="5" stroke-linecap="round"></path>
                <path d="M174.9728,252.548 L187.6608,267.098 C188.9488,268.574 191.2428,268.574 192.5298,267.097 L217.2818,238.689 C219.4798,236.166 216.8638,232.378 213.7258,233.539 L176.2858,247.398 C174.1668,248.182 173.4888,250.845 174.9728,252.548 Z" id="Stroke-61" stroke="#3E3A39" stroke-width="5" stroke-linecap="round"></path>
                <path d="M171.5831,269.1711 C171.5831,273.5671 168.0191,277.1311 163.6221,277.1311 C159.2261,277.1311 155.6621,273.5671 155.6621,269.1711 C155.6621,264.7751 159.2261,261.2101 163.6221,261.2101 C168.0191,261.2101 171.5831,264.7751 171.5831,269.1711" id="Fill-63" fill="#9E9E9F"></path>
                <path d="M171.5831,269.1711 C171.5831,273.5671 168.0191,277.1311 163.6221,277.1311 C159.2261,277.1311 155.6621,273.5671 155.6621,269.1711 C155.6621,264.7751 159.2261,261.2101 163.6221,261.2101 C168.0191,261.2101 171.5831,264.7751 171.5831,269.1711 Z" id="Stroke-65" stroke="#3E3A39" stroke-width="5" stroke-linecap="round" stroke-linejoin="round"></path>
                <path d="M243.8214,226.2931 C248.5414,230.7901 250.5784,237.7821 249.1064,244.4331 L235.8654,304.2341" id="Stroke-67" stroke="#3E3A39" stroke-width="5" stroke-linecap="round"></path>
                <path d="M261.7648,219.2814 L269.0798,224.3864 C277.2778,230.1084 280.1088,241.4654 275.6518,250.7464 L253.2838,287.0954 C249.8348,292.6994 252.4308,300.2504 258.4678,302.1744 C265.2778,304.3444 268.3888,312.7044 264.8188,319.2354 L254.0678,338.9004" id="Stroke-69" stroke="#3E3A39" stroke-width="5" stroke-linecap="round"></path>
                <path d="M57.6749,285.0246 L57.6749,260.8296" id="Stroke-71" stroke="#3E3A39" stroke-width="5" stroke-linecap="round"></path>
                <path d="M47.963,303.2414 L47.963,243.2134" id="Stroke-73" stroke="#3E3A39" stroke-width="5" stroke-linecap="round"></path>
                <path d="M97.1534,217.6222 C97.1534,217.6222 101.8204,226.4122 99.8764,235.3642 C98.2514,242.8452 97.1534,250.4302 97.1534,258.0842 L97.1534,323.0752" id="Stroke-75" stroke="#3E3A39" stroke-width="5" stroke-linecap="round"></path>
                <path d="M47.963,283.0539 C47.963,283.0539 69.867,291.9219 97.22,283.0539" id="Stroke-77" stroke="#3E3A39" stroke-width="5" stroke-linecap="round"></path>
                <g id="Group-82" transform="translate(59.000000, 177.377000)">
                    <path d="M3.2501,16.3253 C-5.0759,4.9993 8.2441,-4.0587 19.0251,3.5723 C27.6341,9.6653 34.4441,22.3343 36.2881,32.5793" id="Fill-79" fill="#FFFFFF"></path>
                    <path d="M3.2501,16.3253 C-5.0759,4.9993 8.2441,-4.0587 19.0251,3.5723 C27.6341,9.6653 34.4441,22.3343 36.2881,32.5793" id="Stroke-81" stroke="#3E3A39" stroke-width="5" stroke-linecap="round"></path>
                </g>
                <path d="M19.7218,231.6164 C20.7418,231.8534 21.8558,231.8104 22.8758,231.7124 C24.8238,231.5224 26.7678,231.2624 28.7128,231.0534 C32.7498,230.6164 36.8408,230.1974 40.8988,230.6064 C46.2538,231.1464 51.0598,233.4084 54.7458,237.3614" id="Stroke-83" stroke="#DBDCDC" stroke-width="5" stroke-linecap="round"></path>
                <g id="Group-88" transform="translate(5.000000, 189.377000)">
                    <path d="M2.0323,19.6183 C-2.5147,10.7253 7.3543,5.2263 14.4113,2.7833 C32.4813,-3.4727 59.5353,2.6193 74.9903,13.4223" id="Fill-85" fill="#FFFFFF"></path>
                    <path d="M2.0323,19.6183 C-2.5147,10.7253 7.3543,5.2263 14.4113,2.7833 C32.4813,-3.4727 59.5353,2.6193 74.9903,13.4223" id="Stroke-87" stroke="#3E3A39" stroke-width="5" stroke-linecap="round"></path>
                </g>
                <path d="M53.9239,246.1711 C51.4199,246.0601 49.3319,244.6071 47.7919,243.0421 C44.8029,240.0061 40.6279,238.4291 36.3669,238.4511 C31.6499,238.4771 26.9299,239.0551 22.1909,239.9591 C16.2699,241.0901 6.8969,238.1641 8.1239,230.1671 C9.9729,218.1231 29.3989,216.6191 42.2699,217.7811" id="Stroke-89" stroke="#3E3A39" stroke-width="5" stroke-linecap="round"></path>
                <path d="M9.088,227.0519 C3.758,226.3379 2.044,221.8029 3.321,217.0119 C7.183,202.5309 27.907,202.2229 39.651,203.5099" id="Stroke-91" stroke="#3E3A39" stroke-width="5" stroke-linecap="round"></path>
            </g>
        </g>
    </g>
</svg>