<?xml version="1.0" encoding="UTF-8"?>
<svg width="268px" height="241px" viewBox="0 0 268 241" version="1.1" xmlns="http://www.w3.org/2000/svg" xmlns:xlink="http://www.w3.org/1999/xlink">
    <!-- Generator: sketchtool 49.2 (51160) - http://www.bohemiancoding.com/sketch -->
    <title>9E017197-F383-4C46-984D-4A943B61F448</title>
    <desc>Created with sketchtool.</desc>
    <defs>
        <polygon id="path-1" points="0.2881 0.9074 255.595 0.9074 255.595 98.4954 0.2881 98.4954"></polygon>
        <polygon id="path-3" points="0.1821 0.353 38.3061582 0.353 38.3061582 68.4111 0.1821 68.4111"></polygon>
        <polygon id="path-5" points="0 240.647 267.595 240.647 267.595 1 0 1"></polygon>
    </defs>
    <g id="Symbols" stroke="none" stroke-width="1" fill="none" fill-rule="evenodd">
        <g id="start_yellow">
            <g id="Page-1">
                <path d="M38.7847,120.8169 C37.6567,126.7709 37.0847,132.8559 37.0847,138.9339 C37.0847,192.2619 80.4697,235.6469 133.7977,235.6469 C187.1247,235.6469 230.5107,192.2619 230.5107,138.9339 C230.5107,132.8559 229.9387,126.7709 228.8107,120.8169 L38.7847,120.8169 Z M133.7977,240.6469 C77.7127,240.6469 32.0847,195.0189 32.0847,138.9339 C32.0847,131.8329 32.8267,124.7209 34.2907,117.7989 C34.5347,116.6439 35.5547,115.8169 36.7367,115.8169 L230.8587,115.8169 C232.0407,115.8169 233.0607,116.6439 233.3047,117.7989 C234.7677,124.7209 235.5107,131.8329 235.5107,138.9339 C235.5107,195.0189 189.8817,240.6469 133.7977,240.6469 Z" id="Fill-1" fill="#3E3A39"></path>
                <path d="M69.4746,66.7134 L198.1206,66.7134 C180.3916,50.8744 157.7786,42.2214 133.7976,42.2214 C109.8156,42.2214 87.2036,50.8744 69.4746,66.7134 M204.3746,71.7134 L63.2206,71.7134 C62.2126,71.7134 61.3026,71.1084 60.9136,70.1774 C60.5256,69.2464 60.7336,68.1734 61.4426,67.4564 C80.7046,47.9584 106.4006,37.2214 133.7976,37.2214 C161.1946,37.2214 186.8906,47.9584 206.1526,67.4564 C206.8616,68.1734 207.0696,69.2464 206.6816,70.1774 C206.2926,71.1084 205.3826,71.7134 204.3746,71.7134" id="Fill-3" fill="#3E3A39"></path>
                <path d="M45.373,99.7115 L222.222,99.7115 C220.399,95.6085 218.285,91.6245 215.912,87.8185 L51.683,87.8185 C49.31,91.6255 47.196,95.6085 45.373,99.7115 M225.988,104.7115 L41.607,104.7115 C40.778,104.7115 40.003,104.3005 39.538,103.6135 C39.072,102.9285 38.977,102.0555 39.285,101.2855 C41.69,95.2545 44.691,89.4275 48.205,83.9665 C48.665,83.2515 49.457,82.8185 50.308,82.8185 L217.287,82.8185 C218.137,82.8185 218.929,83.2505 219.389,83.9665 C222.903,89.4265 225.905,95.2535 228.31,101.2855 C228.618,102.0555 228.523,102.9285 228.058,103.6135 C227.593,104.3005 226.817,104.7115 225.988,104.7115" id="Fill-5" fill="#3E3A39"></path>
                <path d="M247.4097,190.0659 L7.8967,190.0659 C5.2137,190.0659 3.0397,187.8919 3.0397,185.2099 L3.0397,103.4139 C3.0397,100.7309 5.2137,98.5559 7.8967,98.5559 L247.4097,98.5559 C250.0927,98.5559 252.2667,100.7309 252.2667,103.4139 L252.2667,185.2099 C252.2667,187.8919 250.0927,190.0659 247.4097,190.0659" id="Fill-7" fill="#FFFFFF"></path>
                <path d="M7.8965,101.5952 C6.8945,101.5952 6.0795,102.4112 6.0795,103.4132 L6.0795,185.2092 C6.0795,186.2112 6.8945,187.0272 7.8965,187.0272 L247.4095,187.0272 C248.4125,187.0272 249.2275,186.2112 249.2275,185.2092 L249.2275,103.4132 C249.2275,102.4112 248.4125,101.5952 247.4095,101.5952 L7.8965,101.5952 Z M247.4095,193.1052 L7.8965,193.1052 C3.5425,193.1052 0.0005,189.5632 0.0005,185.2092 L0.0005,103.4132 C0.0005,99.0592 3.5425,95.5172 7.8965,95.5172 L247.4095,95.5172 C251.7645,95.5172 255.3065,99.0592 255.3065,103.4132 L255.3065,185.2092 C255.3065,189.5632 251.7645,193.1052 247.4095,193.1052 Z" id="Fill-9" fill="#3E3A39"></path>
                <path d="M259.6982,202.1031 L20.1852,202.1031 C17.5022,202.1031 15.3272,199.9281 15.3272,197.2461 L15.3272,115.4511 C15.3272,112.7681 17.5022,110.5931 20.1852,110.5931 L259.6982,110.5931 C262.3812,110.5931 264.5552,112.7681 264.5552,115.4511 L264.5552,197.2461 C264.5552,199.9281 262.3812,202.1031 259.6982,202.1031" id="Fill-11" fill="#FFE000"></path>
                <g id="Group-15" transform="translate(12.000000, 106.647000)">
                    <mask id="mask-2" fill="white">
                        <use xlink:href="#path-1"></use>
                    </mask>
                    <g id="Clip-14"></g>
                    <path d="M8.1851,6.9854 C7.1831,6.9854 6.3671,7.8014 6.3671,8.8034 L6.3671,90.5984 C6.3671,91.6004 7.1831,92.4174 8.1851,92.4174 L247.6981,92.4174 C248.7001,92.4174 249.5161,91.6004 249.5161,90.5984 L249.5161,8.8034 C249.5161,7.8014 248.7001,6.9854 247.6981,6.9854 L8.1851,6.9854 Z M247.6981,98.4954 L8.1851,98.4954 C3.8311,98.4954 0.2881,94.9534 0.2881,90.5984 L0.2881,8.8034 C0.2881,4.4494 3.8311,0.9074 8.1851,0.9074 L247.6981,0.9074 C252.0521,0.9074 255.5951,4.4494 255.5951,8.8034 L255.5951,90.5984 C255.5951,94.9534 252.0521,98.4954 247.6981,98.4954 Z" id="Fill-13" fill="#3E3A39" mask="url(#mask-2)"></path>
                </g>
                <path d="M66.624,133.3716 C70.961,133.3716 74.381,134.8516 76.883,137.8126 C76.925,136.3526 77.206,135.3516 77.728,134.8096 C78.249,134.2676 79.156,133.9966 80.449,133.9966 C83.118,133.9966 84.453,135.1226 84.453,137.3746 C84.453,138.0006 84.391,138.9186 84.266,140.1276 C84.14,141.3376 84.078,142.2546 84.078,142.8806 C84.078,143.2556 84.119,143.7986 84.203,144.5066 C84.286,145.2166 84.328,145.7586 84.328,146.1336 L84.328,146.4456 C84.328,148.9076 82.91,150.1376 80.074,150.1376 C77.697,150.1376 76.278,149.1366 75.82,147.1346 L75.507,145.8206 C74.882,143.1096 72.67,141.7546 68.876,141.7546 C65.289,141.7546 63.496,143.0056 63.496,145.5076 C63.496,146.8016 63.881,147.6766 64.653,148.1356 C65.424,148.5946 67.374,149.1366 70.502,149.7616 C75.757,150.8046 79.574,152.3686 81.951,154.4536 C84.328,156.5396 85.517,159.3756 85.517,162.9616 C85.517,167.1746 84.078,170.6256 81.2,173.3146 C78.322,176.0056 74.652,177.3506 70.19,177.3506 C66.477,177.3506 62.911,176.0166 59.492,173.3466 C59.367,175.6826 58.116,176.8506 55.739,176.8506 C53.027,176.8506 51.672,175.5156 51.672,172.8466 C51.672,171.9706 51.735,171.0316 51.86,170.0306 C52.026,168.6966 52.11,167.6756 52.11,166.9656 C52.11,166.5076 52.057,165.7986 51.954,164.8386 C51.849,163.8796 51.797,163.1706 51.797,162.7116 C51.797,161.6276 52.245,160.7406 53.143,160.0526 C54.039,159.3646 55.196,159.0196 56.614,159.0196 C58.199,159.0196 59.336,159.3646 60.024,160.0526 C60.712,160.7406 61.202,162.0226 61.494,163.8996 C61.953,167.0276 64.33,168.5926 68.625,168.5926 C70.377,168.5926 71.774,168.1756 72.817,167.3406 C73.859,166.5076 74.381,165.4236 74.381,164.0876 C74.381,162.6286 73.922,161.5966 73.005,160.9906 C72.087,160.3876 69.897,159.6676 66.436,158.8326 L62.307,157.8316 C60.514,157.3736 58.845,156.5596 57.303,155.3926 C54.3,153.1406 52.798,150.1166 52.798,146.3206 C52.798,142.4836 54.081,139.3666 56.645,136.9686 C59.21,134.5706 62.536,133.3716 66.624,133.3716" id="Fill-16" fill="#3E3A39"></path>
                <path d="M102.9697,153.3277 L102.9697,155.8917 L102.9077,159.7707 L102.7827,163.9627 C102.7407,165.3387 102.7197,165.9017 102.7197,165.6517 C102.7197,168.1127 103.5117,169.3427 105.0967,169.3427 C106.5977,169.3427 107.3487,168.2377 107.3487,166.0267 C107.3487,165.6937 107.3267,165.4437 107.2857,165.2757 L107.2857,164.4637 C107.2437,164.1717 107.2237,163.9627 107.2237,163.8377 C107.2237,161.5857 108.3497,160.4597 110.6017,160.4597 C113.2297,160.4597 114.5427,162.5657 114.5427,166.7777 C114.5427,170.0727 113.5627,172.6487 111.6027,174.5037 C109.6417,176.3587 106.9107,177.2877 103.4077,177.2877 C96.5267,177.2877 93.0857,173.6597 93.0857,166.4027 C93.0857,165.2347 93.1367,163.4837 93.2417,161.1467 C93.3447,158.8117 93.3987,157.0597 93.3987,155.8917 L93.3987,153.8897 C93.3987,152.8487 93.3037,152.1917 93.1167,151.9207 C92.9287,151.6487 92.4807,151.5137 91.7717,151.5137 L90.7707,151.5137 C89.9777,151.5137 89.3317,151.2117 88.8317,150.6057 C88.3307,150.0027 88.0807,149.2207 88.0807,148.2607 C88.0807,147.3017 88.3407,146.4767 88.8627,145.7897 C89.3837,145.1007 89.9987,144.7577 90.7077,144.7577 L91.8967,144.7577 C92.8977,144.7577 93.4817,144.4657 93.6487,143.8817 C93.7737,143.5477 93.8357,142.9847 93.8357,142.1917 L93.8357,139.1267 C93.8357,137.6677 94.2207,136.6667 94.9937,136.1237 C95.7647,135.5827 97.1727,135.3097 99.2167,135.3097 C100.6757,135.3097 101.6657,135.5197 102.1877,135.9357 C102.7087,136.3527 102.9697,137.2707 102.9697,138.6887 L102.9697,142.0667 C102.9697,143.2767 103.0837,144.0277 103.3137,144.3187 C103.5427,144.6107 104.1367,144.7577 105.0967,144.7577 L109.6007,144.7577 C112.0617,144.7577 113.2917,145.9047 113.2917,148.1977 C113.2917,150.4087 112.1657,151.5137 109.9137,151.5137 L104.7837,151.5137 C103.9077,151.5137 103.3867,151.6597 103.2197,151.9517 C103.0527,152.2437 102.9697,152.7017 102.9697,153.3277" id="Fill-18" fill="#3E3A39"></path>
                <path d="M136.063,163.8999 L136.063,162.5239 C135.771,162.6909 133.936,163.2119 130.558,164.0869 C128.264,164.6719 127.117,165.5689 127.117,166.7779 C127.117,168.6969 128.243,169.6559 130.495,169.6559 C134.207,169.6559 136.063,167.7379 136.063,163.8999 M145.134,177.2879 C141.714,177.2879 139.42,175.9119 138.252,173.1589 C135.333,175.9119 131.872,177.2879 127.868,177.2879 C124.573,177.2879 121.945,176.4209 119.985,174.6919 C118.024,172.9619 117.045,170.6569 117.045,167.7789 C117.045,163.3999 118.942,160.5639 122.738,159.2709 C124.365,158.7289 126.241,158.2699 128.368,157.8939 C131.329,157.3939 133.342,156.8209 134.405,156.1739 C135.469,155.5279 136.001,154.5379 136.001,153.2029 C136.001,152.2439 135.594,151.4409 134.781,150.7939 C133.967,150.1479 132.956,149.8239 131.747,149.8239 C130.37,149.8239 129.682,150.2619 129.682,151.1379 C129.682,151.4299 129.703,151.7219 129.745,152.0139 L129.745,152.2639 C129.745,153.4319 129.254,154.4129 128.274,155.2049 C127.294,155.9969 126.074,156.3929 124.615,156.3929 C122.946,156.3929 121.57,155.8919 120.486,154.8909 C119.401,153.8899 118.859,152.6389 118.859,151.1379 C118.859,148.8859 120.048,147.1139 122.425,145.8209 C124.802,144.5279 128.076,143.8809 132.247,143.8809 C136.751,143.8809 140.108,144.5689 142.319,145.9459 C144.696,147.4469 145.885,150.2419 145.885,154.3289 L145.885,167.2779 C145.885,168.6139 146.218,169.2799 146.886,169.2799 C147.219,169.2799 147.532,169.2589 147.824,169.2169 C147.949,169.1759 148.095,169.1549 148.262,169.1549 C149.221,169.1549 150.034,169.4889 150.702,170.1559 C151.369,170.8239 151.703,171.6369 151.703,172.5949 C151.703,173.9719 151.087,175.0979 149.857,175.9739 C148.626,176.8499 147.052,177.2879 145.134,177.2879" id="Fill-20" fill="#3E3A39"></path>
                <path d="M166.4038,146.6958 L166.4038,152.0138 C166.9868,149.8868 167.6758,148.3228 168.4678,147.3218 C170.3028,145.0288 172.8678,143.8818 176.1628,143.8818 C178.4568,143.8818 180.3858,144.6218 181.9498,146.1018 C183.5138,147.5828 184.2958,149.4078 184.2958,151.5758 C184.2958,153.2868 183.7958,154.6938 182.7948,155.7988 C181.7938,156.9038 180.5208,157.4568 178.9788,157.4568 C177.8098,157.4568 176.8198,157.0808 176.0068,156.3308 C175.1938,155.5798 174.7868,154.6628 174.7868,153.5778 C174.7868,152.9948 175.0578,152.1808 175.5998,151.1378 L175.2248,151.1378 C172.4298,151.1378 170.5528,152.6188 169.5938,155.5798 C168.8438,157.9568 168.4678,160.6888 168.4678,163.7748 L168.4678,166.1518 C168.4678,167.6538 168.5938,168.6138 168.8438,169.0298 C169.0098,169.2798 169.3018,169.4048 169.7198,169.4048 C170.0948,169.4048 170.6158,169.3218 171.2838,169.1548 C171.9498,168.9888 172.4508,168.9048 172.7848,168.9048 C173.7018,168.9048 174.4838,169.2278 175.1308,169.8748 C175.7768,170.5208 176.1008,171.3028 176.1008,172.2198 C176.1008,173.4298 175.6938,174.4408 174.8808,175.2548 C174.0678,176.0678 173.0758,176.4738 171.9088,176.4738 C171.2838,176.4738 170.1148,176.3698 168.4058,176.1618 C167.3628,176.0368 166.0498,175.9738 164.4648,175.9738 C162.8788,175.9738 161.4828,176.0368 160.2728,176.1618 C158.2718,176.3698 157.0408,176.4738 156.5818,176.4738 C153.9958,176.4738 152.7038,175.0778 152.7038,172.2828 C152.7038,169.9478 153.7048,168.7798 155.7068,168.7798 C156.0398,168.7798 156.4148,168.8528 156.8328,168.9988 C157.2488,169.1448 157.5618,169.2168 157.7708,169.2168 C158.4798,169.2168 158.8348,168.0498 158.8348,165.7148 L158.8348,155.5798 C158.8348,153.2028 158.4798,152.0138 157.7708,152.0138 C157.6038,152.0138 157.2798,152.0878 156.8008,152.2328 C156.3208,152.3798 155.9568,152.4518 155.7068,152.4518 C153.7048,152.4518 152.7038,151.3048 152.7038,149.0108 C152.7038,147.7588 153.0368,146.7378 153.7048,145.9458 C154.3708,145.1538 155.2268,144.7578 156.2698,144.7578 C156.6858,144.7578 157.2708,144.8418 158.0208,145.0078 C158.7718,145.1748 159.4808,145.2578 160.1478,145.2578 C160.6488,145.2578 161.3778,145.1748 162.3378,145.0078 C163.2968,144.8418 164.0058,144.7578 164.4648,144.7578 C165.7568,144.7578 166.4038,145.4038 166.4038,146.6958" id="Fill-22" fill="#3E3A39"></path>
                <path d="M198.6841,153.3277 L198.6841,155.8917 L198.6221,159.7707 L198.4971,163.9627 C198.4551,165.3387 198.4341,165.9017 198.4341,165.6517 C198.4341,168.1127 199.2261,169.3427 200.8111,169.3427 C202.3121,169.3427 203.0631,168.2377 203.0631,166.0267 C203.0631,165.6937 203.0411,165.4437 203.0001,165.2757 L203.0001,164.4637 C202.9581,164.1717 202.9381,163.9627 202.9381,163.8377 C202.9381,161.5857 204.0641,160.4597 206.3161,160.4597 C208.9441,160.4597 210.2571,162.5657 210.2571,166.7777 C210.2571,170.0727 209.2771,172.6487 207.3171,174.5037 C205.3561,176.3587 202.6251,177.2877 199.1221,177.2877 C192.2411,177.2877 188.8001,173.6597 188.8001,166.4027 C188.8001,165.2347 188.8511,163.4837 188.9561,161.1467 C189.0591,158.8117 189.1131,157.0597 189.1131,155.8917 L189.1131,153.8897 C189.1131,152.8487 189.0181,152.1917 188.8311,151.9207 C188.6431,151.6487 188.1951,151.5137 187.4861,151.5137 L186.4851,151.5137 C185.6921,151.5137 185.0461,151.2117 184.5461,150.6057 C184.0451,150.0027 183.7951,149.2207 183.7951,148.2607 C183.7951,147.3017 184.0551,146.4767 184.5771,145.7897 C185.0981,145.1007 185.7131,144.7577 186.4221,144.7577 L187.6111,144.7577 C188.6121,144.7577 189.1961,144.4657 189.3631,143.8817 C189.4881,143.5477 189.5501,142.9847 189.5501,142.1917 L189.5501,139.1267 C189.5501,137.6677 189.9351,136.6667 190.7081,136.1237 C191.4791,135.5827 192.8871,135.3097 194.9311,135.3097 C196.3901,135.3097 197.3801,135.5197 197.9021,135.9357 C198.4231,136.3527 198.6841,137.2707 198.6841,138.6887 L198.6841,142.0667 C198.6841,143.2767 198.7981,144.0277 199.0281,144.3187 C199.2571,144.6107 199.8511,144.7577 200.8111,144.7577 L205.3151,144.7577 C207.7761,144.7577 209.0061,145.9047 209.0061,148.1977 C209.0061,150.4087 207.8801,151.5137 205.6281,151.5137 L200.4981,151.5137 C199.6221,151.5137 199.1011,151.6597 198.9341,151.9517 C198.7671,152.2437 198.6841,152.7017 198.6841,153.3277" id="Fill-24" fill="#3E3A39"></path>
                <path d="M224.583,177.2876 C222.998,177.2876 221.622,176.7026 220.454,175.5356 C219.286,174.3686 218.703,172.9716 218.703,171.3446 C218.703,169.7186 219.286,168.3206 220.454,167.1526 C221.622,165.9856 222.998,165.4016 224.583,165.4016 C226.209,165.4016 227.606,165.9856 228.774,167.1526 C229.942,168.3206 230.526,169.7186 230.526,171.3446 C230.526,172.9716 229.942,174.3686 228.774,175.5356 C227.606,176.7026 226.209,177.2876 224.583,177.2876 Z M228.837,160.2716 C228.628,162.3576 227.648,163.3996 225.897,163.3996 L223.457,163.3996 C221.706,163.3996 220.725,162.3576 220.517,160.2716 L218.578,140.1276 C218.452,138.8356 218.39,138.0006 218.39,137.6256 C218.39,134.7896 220.475,133.3716 224.645,133.3716 C228.815,133.3716 230.901,134.7896 230.901,137.6256 C230.901,138.4176 230.859,139.2516 230.776,140.1276 L228.837,160.2716 Z" id="Fill-26" fill="#3E3A39"></path>
                <path d="M183.1562,62.8824 C185.8512,67.5514 183.1272,74.1714 177.0712,77.6674 C171.0152,81.1634 163.9202,80.2134 161.2242,75.5444 C158.5292,70.8754 161.2532,64.2564 167.3092,60.7594 C173.3652,57.2634 180.4602,58.2134 183.1562,62.8824" id="Fill-28" fill="#3E3A39"></path>
                <path d="M174.8481,53.6509 C171.4291,53.6509 167.9571,54.6119 164.8091,56.4289 C160.9291,58.6709 157.9291,62.0019 156.3611,65.8099 C154.6341,70.0059 154.8281,74.4659 156.8941,78.0449 C159.3281,82.2589 164.0531,84.7759 169.5331,84.7759 C172.9521,84.7759 176.4231,83.8149 179.5711,81.9979 C183.4521,79.7569 186.4521,76.4259 188.0191,72.6179 C189.7461,68.4209 189.5521,63.9619 187.4861,60.3819 C185.0531,56.1679 180.3281,53.6509 174.8481,53.6509 M174.8481,58.6509 C178.4091,58.6509 181.5561,60.1129 183.1561,62.8819 C185.8511,67.5509 183.1271,74.1719 177.0711,77.6679 C174.6081,79.0889 171.9731,79.7759 169.5331,79.7759 C165.9721,79.7759 162.8241,78.3149 161.2241,75.5449 C158.5291,70.8759 161.2531,64.2559 167.3091,60.7599 C169.7721,59.3379 172.4071,58.6509 174.8481,58.6509" id="Fill-30" fill="#FFFFFF"></path>
                <g id="Group-34" transform="translate(179.000000, 0.647000)">
                    <mask id="mask-4" fill="white">
                        <use xlink:href="#path-3"></use>
                    </mask>
                    <g id="Clip-33"></g>
                    <path d="M2.6821,68.4111 C1.3011,68.4111 0.1821,67.2921 0.1821,65.9111 L0.1821,2.8521 C0.1821,1.4721 1.3011,0.3521 2.6821,0.3521 C4.0621,0.3521 5.1821,1.4721 5.1821,2.8521 C5.1821,9.2031 12.1061,12.9001 18.2151,16.1621 C19.0001,16.5821 19.7611,16.9881 20.4791,17.3861 C30.2831,22.8191 34.7361,30.5311 38.0891,38.0561 C38.6511,39.3171 38.0841,40.7951 36.8231,41.3561 C35.5621,41.9201 34.0831,41.3511 33.5211,40.0911 C30.0561,32.3111 26.0991,26.2181 18.0551,21.7591 C17.3591,21.3731 16.6211,20.9791 15.8591,20.5721 C12.4221,18.7371 8.3261,16.5501 5.1821,13.5601 L5.1821,65.9111 C5.1821,67.2921 4.0631,68.4111 2.6821,68.4111" id="Fill-32" fill="#3E3A39" mask="url(#mask-4)"></path>
                </g>
                <mask id="mask-6" fill="white">
                    <use xlink:href="#path-5"></use>
                </mask>
                <g id="Clip-36"></g>
                <polygon id="Fill-35" fill="#3E3A39" mask="url(#mask-6)" points="139.942 87.819 204.375 87.819 204.375 82.819 139.942 82.819"></polygon>
            </g>
        </g>
    </g>
</svg>