<?xml version="1.0" encoding="UTF-8"?>
<svg width="268px" height="241px" viewBox="0 0 268 241" version="1.1" xmlns="http://www.w3.org/2000/svg" xmlns:xlink="http://www.w3.org/1999/xlink">
    <!-- Generator: sketchtool 49.2 (51160) - http://www.bohemiancoding.com/sketch -->
    <title>BA80258C-FB6E-4B19-8F7F-582C6CB41703</title>
    <desc>Created with sketchtool.</desc>
    <defs>
        <polygon id="path-1" points="0.2881 0.9074 255.595 0.9074 255.595 98.4954 0.2881 98.4954"></polygon>
        <polygon id="path-3" points="0.1821 0.353 38.3061582 0.353 38.3061582 68.4111 0.1821 68.4111"></polygon>
        <polygon id="path-5" points="0 240.647 267.595 240.647 267.595 1 0 1"></polygon>
    </defs>
    <g id="Symbols" stroke="none" stroke-width="1" fill="none" fill-rule="evenodd">
        <g id="start_white">
            <g id="Page-1">
                <path d="M38.7847,120.8169 C37.6567,126.7709 37.0847,132.8559 37.0847,138.9339 C37.0847,192.2619 80.4697,235.6469 133.7977,235.6469 C187.1247,235.6469 230.5107,192.2619 230.5107,138.9339 C230.5107,132.8559 229.9387,126.7709 228.8107,120.8169 L38.7847,120.8169 Z M133.7977,240.6469 C77.7127,240.6469 32.0847,195.0189 32.0847,138.9339 C32.0847,131.8329 32.8267,124.7209 34.2907,117.7989 C34.5347,116.6439 35.5547,115.8169 36.7367,115.8169 L230.8587,115.8169 C232.0407,115.8169 233.0607,116.6439 233.3047,117.7989 C234.7677,124.7209 235.5107,131.8329 235.5107,138.9339 C235.5107,195.0189 189.8817,240.6469 133.7977,240.6469 Z" id="Fill-1" fill="#3E3A39"></path>
                <path d="M69.4746,66.7134 L198.1206,66.7134 C180.3916,50.8744 157.7786,42.2214 133.7976,42.2214 C109.8156,42.2214 87.2036,50.8744 69.4746,66.7134 M204.3746,71.7134 L63.2206,71.7134 C62.2126,71.7134 61.3026,71.1084 60.9136,70.1774 C60.5256,69.2464 60.7336,68.1734 61.4426,67.4564 C80.7046,47.9584 106.4006,37.2214 133.7976,37.2214 C161.1946,37.2214 186.8906,47.9584 206.1526,67.4564 C206.8616,68.1734 207.0696,69.2464 206.6816,70.1774 C206.2926,71.1084 205.3826,71.7134 204.3746,71.7134" id="Fill-3" fill="#3E3A39"></path>
                <path d="M45.373,99.7115 L222.222,99.7115 C220.399,95.6095 218.286,91.6255 215.912,87.8185 L51.683,87.8185 C49.309,91.6265 47.195,95.6095 45.373,99.7115 M225.988,104.7115 L41.607,104.7115 C40.778,104.7115 40.003,104.3005 39.538,103.6135 C39.072,102.9285 38.977,102.0555 39.285,101.2855 C41.689,95.2565 44.69,89.4295 48.205,83.9665 C48.665,83.2515 49.457,82.8185 50.308,82.8185 L217.287,82.8185 C218.137,82.8185 218.929,83.2505 219.389,83.9665 C222.905,89.4285 225.906,95.2555 228.31,101.2855 C228.618,102.0555 228.523,102.9285 228.058,103.6135 C227.592,104.3005 226.817,104.7115 225.988,104.7115" id="Fill-5" fill="#3E3A39"></path>
                <path d="M247.4097,190.0659 L7.8967,190.0659 C5.2137,190.0659 3.0397,187.8909 3.0397,185.2089 L3.0397,103.4139 C3.0397,100.7309 5.2137,98.5559 7.8967,98.5559 L247.4097,98.5559 C250.0927,98.5559 252.2667,100.7309 252.2667,103.4139 L252.2667,185.2089 C252.2667,187.8909 250.0927,190.0659 247.4097,190.0659" id="Fill-7" fill="#FFFFFF"></path>
                <path d="M7.8965,101.5952 C6.8945,101.5952 6.0795,102.4112 6.0795,103.4132 L6.0795,185.2082 C6.0795,186.2102 6.8945,187.0272 7.8965,187.0272 L247.4095,187.0272 C248.4125,187.0272 249.2275,186.2102 249.2275,185.2082 L249.2275,103.4132 C249.2275,102.4112 248.4125,101.5952 247.4095,101.5952 L7.8965,101.5952 Z M247.4095,193.1052 L7.8965,193.1052 C3.5425,193.1052 0.0005,189.5632 0.0005,185.2082 L0.0005,103.4132 C0.0005,99.0592 3.5425,95.5172 7.8965,95.5172 L247.4095,95.5172 C251.7645,95.5172 255.3065,99.0592 255.3065,103.4132 L255.3065,185.2082 C255.3065,189.5632 251.7645,193.1052 247.4095,193.1052 Z" id="Fill-9" fill="#3E3A39"></path>
                <path d="M259.6982,202.1031 L20.1852,202.1031 C17.5022,202.1031 15.3272,199.9281 15.3272,197.2461 L15.3272,115.4511 C15.3272,112.7681 17.5022,110.5931 20.1852,110.5931 L259.6982,110.5931 C262.3812,110.5931 264.5552,112.7681 264.5552,115.4511 L264.5552,197.2461 C264.5552,199.9281 262.3812,202.1031 259.6982,202.1031" id="Fill-11" fill="#FFFFFF"></path>
                <g id="Group-15" transform="translate(12.000000, 106.647000)">
                    <mask id="mask-2" fill="white">
                        <use xlink:href="#path-1"></use>
                    </mask>
                    <g id="Clip-14"></g>
                    <path d="M8.1851,6.9854 C7.1831,6.9854 6.3671,7.8014 6.3671,8.8034 L6.3671,90.5984 C6.3671,91.6004 7.1831,92.4174 8.1851,92.4174 L247.6981,92.4174 C248.7001,92.4174 249.5161,91.6004 249.5161,90.5984 L249.5161,8.8034 C249.5161,7.8014 248.7001,6.9854 247.6981,6.9854 L8.1851,6.9854 Z M247.6981,98.4954 L8.1851,98.4954 C3.8311,98.4954 0.2881,94.9534 0.2881,90.5984 L0.2881,8.8034 C0.2881,4.4494 3.8311,0.9074 8.1851,0.9074 L247.6981,0.9074 C252.0521,0.9074 255.5951,4.4494 255.5951,8.8034 L255.5951,90.5984 C255.5951,94.9534 252.0521,98.4954 247.6981,98.4954 Z" id="Fill-13" fill="#3E3A39" mask="url(#mask-2)"></path>
                </g>
                <path d="M64.8467,132.3843 C69.2837,132.3843 72.7827,133.8993 75.3427,136.9283 C75.3847,135.4353 75.6727,134.4103 76.2067,133.8563 C76.7397,133.3023 77.6677,133.0243 78.9907,133.0243 C81.7207,133.0243 83.0867,134.1763 83.0867,136.4803 C83.0867,137.1203 83.0227,138.0593 82.8947,139.2963 C82.7667,140.5333 82.7027,141.4723 82.7027,142.1123 C82.7027,142.4963 82.7447,143.0513 82.8307,143.7763 C82.9157,144.5023 82.9587,145.0563 82.9587,145.4403 L82.9587,145.7603 C82.9587,148.2783 81.5077,149.5353 78.6067,149.5353 C76.1747,149.5353 74.7237,148.5123 74.2547,146.4643 L73.9347,145.1203 C73.2947,142.3473 71.0327,140.9603 67.1507,140.9603 C63.4807,140.9603 61.6467,142.2393 61.6467,144.8003 C61.6467,146.1233 62.0407,147.0193 62.8307,147.4883 C63.6197,147.9583 65.6147,148.5123 68.8147,149.1523 C74.1907,150.2193 78.0947,151.8193 80.5267,153.9513 C82.9587,156.0863 84.1747,158.9873 84.1747,162.6553 C84.1747,166.9663 82.7027,170.4963 79.7587,173.2483 C76.8147,176.0003 73.0597,177.3763 68.4947,177.3763 C64.6967,177.3763 61.0487,176.0113 57.5507,173.2803 C57.4227,175.6703 56.1427,176.8633 53.7107,176.8633 C50.9367,176.8633 49.5507,175.4993 49.5507,172.7683 C49.5507,171.8723 49.6147,170.9123 49.7427,169.8883 C49.9127,168.5233 49.9987,167.4783 49.9987,166.7523 C49.9987,166.2823 49.9447,165.5583 49.8387,164.5753 C49.7317,163.5953 49.6787,162.8703 49.6787,162.4003 C49.6787,161.2913 50.1367,160.3843 51.0547,159.6803 C51.9717,158.9763 53.1557,158.6243 54.6067,158.6243 C56.2277,158.6243 57.3907,158.9763 58.0947,159.6803 C58.7987,160.3843 59.2997,161.6963 59.5987,163.6153 C60.0677,166.8163 62.4997,168.4163 66.8947,168.4163 C68.6867,168.4163 70.1157,167.9893 71.1827,167.1363 C72.2487,166.2823 72.7827,165.1743 72.7827,163.8083 C72.7827,162.3153 72.3127,161.2593 71.3747,160.6403 C70.4357,160.0223 68.1957,159.2853 64.6547,158.4323 L60.4307,157.4073 C58.5957,156.9393 56.8887,156.1073 55.3107,154.9123 C52.2387,152.6083 50.7027,149.5153 50.7027,145.6323 C50.7027,141.7073 52.0147,138.5183 54.6387,136.0643 C57.2627,133.6113 60.6647,132.3843 64.8467,132.3843" id="Fill-16" fill="#3E3A39"></path>
                <path d="M102.0298,152.8003 L102.0298,155.4243 L101.9658,159.3923 L101.8378,163.6803 C101.7948,165.0883 101.7738,165.6643 101.7738,165.4073 C101.7738,167.9263 102.5838,169.1843 104.2058,169.1843 C105.7418,169.1843 106.5098,168.0543 106.5098,165.7923 C106.5098,165.4503 106.4878,165.1953 106.4458,165.0243 L106.4458,164.1923 C106.4028,163.8943 106.3818,163.6803 106.3818,163.5523 C106.3818,161.2483 107.5338,160.0963 109.8378,160.0963 C112.5258,160.0963 113.8698,162.2513 113.8698,166.5603 C113.8698,169.9313 112.8668,172.5663 110.8618,174.4643 C108.8558,176.3623 106.0618,177.3123 102.4778,177.3123 C95.4378,177.3123 91.9178,173.6003 91.9178,166.1763 C91.9178,164.9823 91.9708,163.1903 92.0778,160.8003 C92.1838,158.4103 92.2378,156.6183 92.2378,155.4243 L92.2378,153.3763 C92.2378,152.3103 92.1418,151.6383 91.9498,151.3603 C91.7578,151.0833 91.2988,150.9443 90.5738,150.9443 L89.5498,150.9443 C88.7388,150.9443 88.0778,150.6353 87.5658,150.0163 C87.0538,149.3983 86.7978,148.5983 86.7978,147.6153 C86.7978,146.6353 87.0638,145.7923 87.5978,145.0883 C88.1308,144.3843 88.7598,144.0313 89.4858,144.0313 L90.7018,144.0313 C91.7258,144.0313 92.3228,143.7343 92.4938,143.1363 C92.6218,142.7953 92.6858,142.2193 92.6858,141.4073 L92.6858,138.2723 C92.6858,136.7793 93.0798,135.7553 93.8698,135.1993 C94.6588,134.6463 96.0988,134.3673 98.1898,134.3673 C99.6828,134.3673 100.6958,134.5823 101.2298,135.0083 C101.7628,135.4353 102.0298,136.3743 102.0298,137.8233 L102.0298,141.2793 C102.0298,142.5183 102.1468,143.2853 102.3818,143.5843 C102.6158,143.8833 103.2238,144.0313 104.2058,144.0313 L108.8138,144.0313 C111.3308,144.0313 112.5898,145.2063 112.5898,147.5523 C112.5898,149.8143 111.4378,150.9443 109.1338,150.9443 L103.8858,150.9443 C102.9898,150.9443 102.4558,151.0943 102.2858,151.3923 C102.1148,151.6913 102.0298,152.1593 102.0298,152.8003" id="Fill-18" fill="#3E3A39"></path>
                <path d="M135.8857,163.6157 L135.8857,162.2087 C135.5867,162.3797 133.7097,162.9127 130.2537,163.8077 C127.9067,164.4057 126.7337,165.3227 126.7337,166.5597 C126.7337,168.5227 127.8857,169.5047 130.1897,169.5047 C133.9867,169.5047 135.8857,167.5427 135.8857,163.6157 M145.1657,177.3117 C141.6667,177.3117 139.3197,175.9037 138.1257,173.0887 C135.1387,175.9037 131.5977,177.3117 127.5017,177.3117 C124.1307,177.3117 121.4427,176.4267 119.4377,174.6557 C117.4317,172.8867 116.4297,170.5277 116.4297,167.5847 C116.4297,163.1037 118.3707,160.2027 122.2537,158.8807 C123.9177,158.3257 125.8377,157.8557 128.0137,157.4717 C131.0427,156.9607 133.1017,156.3747 134.1897,155.7127 C135.2777,155.0517 135.8217,154.0387 135.8217,152.6727 C135.8217,151.6907 135.4057,150.8707 134.5737,150.2087 C133.7417,149.5477 132.7067,149.2167 131.4697,149.2167 C130.0617,149.2167 129.3577,149.6647 129.3577,150.5597 C129.3577,150.8587 129.3787,151.1577 129.4217,151.4567 L129.4217,151.7127 C129.4217,152.9067 128.9197,153.9097 127.9177,154.7197 C126.9147,155.5307 125.6667,155.9357 124.1737,155.9357 C122.4667,155.9357 121.0587,155.4247 119.9497,154.3997 C118.8397,153.3767 118.2857,152.0957 118.2857,150.5597 C118.2857,148.2567 119.5017,146.4427 121.9337,145.1207 C124.3657,143.7987 127.7147,143.1367 131.9817,143.1367 C136.5897,143.1367 140.0237,143.8407 142.2857,145.2487 C144.7177,146.7837 145.9337,149.6427 145.9337,153.8237 L145.9337,167.0717 C145.9337,168.4377 146.2747,169.1207 146.9577,169.1207 C147.2987,169.1207 147.6187,169.0987 147.9177,169.0557 C148.0457,169.0137 148.1947,168.9917 148.3657,168.9917 C149.3467,168.9917 150.1787,169.3347 150.8617,170.0157 C151.5437,170.6987 151.8857,171.5307 151.8857,172.5117 C151.8857,173.9207 151.2557,175.0717 149.9977,175.9687 C148.7387,176.8637 147.1277,177.3117 145.1657,177.3117" id="Fill-20" fill="#3E3A39"></path>
                <path d="M166.9253,146.0161 L166.9253,151.4561 C167.5223,149.2801 168.2263,147.6801 169.0373,146.6561 C170.9143,144.3101 173.5383,143.1361 176.9093,143.1361 C179.2553,143.1361 181.2293,143.8941 182.8293,145.4081 C184.4293,146.9231 185.2293,148.7901 185.2293,151.0081 C185.2293,152.7581 184.7173,154.1981 183.6933,155.3281 C182.6693,156.4591 181.3673,157.0241 179.7893,157.0241 C178.5943,157.0241 177.5813,156.6401 176.7493,155.8721 C175.9173,155.1041 175.5013,154.1661 175.5013,153.0561 C175.5013,152.4591 175.7783,151.6271 176.3333,150.5601 L175.9493,150.5601 C173.0903,150.5601 171.1703,152.0751 170.1893,155.1041 C169.4213,157.5361 169.0373,160.3311 169.0373,163.4881 L169.0373,165.9201 C169.0373,167.4561 169.1653,168.4381 169.4213,168.8641 C169.5913,169.1201 169.8903,169.2481 170.3173,169.2481 C170.7013,169.2481 171.2343,169.1631 171.9173,168.9921 C172.5993,168.8221 173.1113,168.7361 173.4533,168.7361 C174.3913,168.7361 175.1913,169.0671 175.8533,169.7281 C176.5143,170.3901 176.8453,171.1901 176.8453,172.1281 C176.8453,173.3661 176.4293,174.4001 175.5973,175.2321 C174.7653,176.0641 173.7513,176.4801 172.5573,176.4801 C171.9173,176.4801 170.7223,176.3731 168.9733,176.1601 C167.9063,176.0321 166.5623,175.9681 164.9413,175.9681 C163.3193,175.9681 161.8903,176.0321 160.6533,176.1601 C158.6053,176.3731 157.3463,176.4801 156.8773,176.4801 C154.2313,176.4801 152.9093,175.0511 152.9093,172.1921 C152.9093,169.8031 153.9333,168.6081 155.9813,168.6081 C156.3223,168.6081 156.7063,168.6831 157.1333,168.8321 C157.5593,168.9821 157.8793,169.0561 158.0933,169.0561 C158.8183,169.0561 159.1813,167.8621 159.1813,165.4721 L159.1813,155.1041 C159.1813,152.6721 158.8183,151.4561 158.0933,151.4561 C157.9223,151.4561 157.5913,151.5311 157.1013,151.6801 C156.6103,151.8301 156.2373,151.9041 155.9813,151.9041 C153.9333,151.9041 152.9093,150.7311 152.9093,148.3841 C152.9093,147.1041 153.2503,146.0591 153.9333,145.2481 C154.6153,144.4381 155.4903,144.0321 156.5573,144.0321 C156.9833,144.0321 157.5813,144.1181 158.3493,144.2881 C159.1173,144.4591 159.8423,144.5441 160.5253,144.5441 C161.0373,144.5441 161.7833,144.4591 162.7653,144.2881 C163.7463,144.1181 164.4713,144.0321 164.9413,144.0321 C166.2633,144.0321 166.9253,144.6941 166.9253,146.0161" id="Fill-22" fill="#3E3A39"></path>
                <path d="M199.9487,152.8003 L199.9487,155.4243 L199.8847,159.3923 L199.7567,163.6803 C199.7137,165.0883 199.6927,165.6643 199.6927,165.4073 C199.6927,167.9263 200.5027,169.1843 202.1247,169.1843 C203.6607,169.1843 204.4287,168.0543 204.4287,165.7923 C204.4287,165.4503 204.4067,165.1953 204.3647,165.0243 L204.3647,164.1923 C204.3217,163.8943 204.3007,163.6803 204.3007,163.5523 C204.3007,161.2483 205.4527,160.0963 207.7567,160.0963 C210.4447,160.0963 211.7887,162.2513 211.7887,166.5603 C211.7887,169.9313 210.7857,172.5663 208.7807,174.4643 C206.7747,176.3623 203.9807,177.3123 200.3967,177.3123 C193.3567,177.3123 189.8367,173.6003 189.8367,166.1763 C189.8367,164.9823 189.8897,163.1903 189.9967,160.8003 C190.1027,158.4103 190.1567,156.6183 190.1567,155.4243 L190.1567,153.3763 C190.1567,152.3103 190.0607,151.6383 189.8687,151.3603 C189.6767,151.0833 189.2177,150.9443 188.4927,150.9443 L187.4687,150.9443 C186.6577,150.9443 185.9967,150.6353 185.4847,150.0163 C184.9727,149.3983 184.7167,148.5983 184.7167,147.6153 C184.7167,146.6353 184.9827,145.7923 185.5167,145.0883 C186.0497,144.3843 186.6787,144.0313 187.4047,144.0313 L188.6207,144.0313 C189.6447,144.0313 190.2417,143.7343 190.4127,143.1363 C190.5407,142.7953 190.6047,142.2193 190.6047,141.4073 L190.6047,138.2723 C190.6047,136.7793 190.9987,135.7553 191.7887,135.1993 C192.5777,134.6463 194.0177,134.3673 196.1087,134.3673 C197.6017,134.3673 198.6147,134.5823 199.1487,135.0083 C199.6817,135.4353 199.9487,136.3743 199.9487,137.8233 L199.9487,141.2793 C199.9487,142.5183 200.0657,143.2853 200.3007,143.5843 C200.5347,143.8833 201.1427,144.0313 202.1247,144.0313 L206.7327,144.0313 C209.2497,144.0313 210.5087,145.2063 210.5087,147.5523 C210.5087,149.8143 209.3567,150.9443 207.0527,150.9443 L201.8047,150.9443 C200.9087,150.9443 200.3747,151.0943 200.2047,151.3923 C200.0337,151.6913 199.9487,152.1593 199.9487,152.8003" id="Fill-24" fill="#3E3A39"></path>
                <path d="M226.4448,177.312 C224.8228,177.312 223.4148,176.714 222.2208,175.52 C221.0258,174.326 220.4288,172.896 220.4288,171.232 C220.4288,169.568 221.0258,168.139 222.2208,166.944 C223.4148,165.75 224.8228,165.152 226.4448,165.152 C228.1088,165.152 229.5378,165.75 230.7328,166.944 C231.9268,168.139 232.5248,169.568 232.5248,171.232 C232.5248,172.896 231.9268,174.326 230.7328,175.52 C229.5378,176.714 228.1088,177.312 226.4448,177.312 Z M230.7968,159.904 C230.5828,162.039 229.5808,163.104 227.7888,163.104 L225.2928,163.104 C223.5008,163.104 222.4978,162.039 222.2848,159.904 L220.3008,139.296 C220.1728,137.974 220.1088,137.121 220.1088,136.736 C220.1088,133.835 222.2418,132.384 226.5088,132.384 C230.7748,132.384 232.9088,133.835 232.9088,136.736 C232.9088,137.547 232.8658,138.4 232.7808,139.296 L230.7968,159.904 Z" id="Fill-26" fill="#3E3A39"></path>
                <path d="M183.1562,62.8824 C185.8512,67.5514 183.1272,74.1714 177.0712,77.6674 C171.0152,81.1634 163.9202,80.2134 161.2242,75.5444 C158.5292,70.8754 161.2532,64.2564 167.3092,60.7594 C173.3652,57.2634 180.4602,58.2134 183.1562,62.8824" id="Fill-28" fill="#3E3A39"></path>
                <path d="M174.8481,53.6509 C171.4291,53.6509 167.9571,54.6119 164.8091,56.4289 C160.9291,58.6709 157.9291,62.0019 156.3611,65.8099 C154.6341,70.0059 154.8281,74.4659 156.8941,78.0449 C159.3281,82.2589 164.0531,84.7759 169.5331,84.7759 C172.9521,84.7759 176.4231,83.8149 179.5711,81.9979 C183.4521,79.7569 186.4521,76.4259 188.0191,72.6179 C189.7461,68.4209 189.5521,63.9619 187.4861,60.3819 C185.0531,56.1679 180.3281,53.6509 174.8481,53.6509 M174.8481,58.6509 C178.4091,58.6509 181.5561,60.1129 183.1561,62.8819 C185.8511,67.5509 183.1271,74.1719 177.0711,77.6679 C174.6081,79.0889 171.9731,79.7759 169.5331,79.7759 C165.9721,79.7759 162.8241,78.3149 161.2241,75.5449 C158.5291,70.8759 161.2531,64.2559 167.3091,60.7599 C169.7721,59.3379 172.4071,58.6509 174.8481,58.6509" id="Fill-30" fill="#FFFFFF"></path>
                <g id="Group-34" transform="translate(179.000000, 0.647000)">
                    <mask id="mask-4" fill="white">
                        <use xlink:href="#path-3"></use>
                    </mask>
                    <g id="Clip-33"></g>
                    <path d="M2.6821,68.4111 C1.3011,68.4111 0.1821,67.2921 0.1821,65.9111 L0.1821,2.8521 C0.1821,1.4721 1.3011,0.3521 2.6821,0.3521 C4.0621,0.3521 5.1821,1.4721 5.1821,2.8521 C5.1821,9.2031 12.1061,12.9001 18.2151,16.1621 C19.0001,16.5821 19.7611,16.9881 20.4791,17.3861 C30.2831,22.8191 34.7361,30.5311 38.0891,38.0561 C38.6511,39.3171 38.0841,40.7951 36.8231,41.3561 C35.5601,41.9201 34.0831,41.3511 33.5211,40.0911 C30.0561,32.3111 26.0991,26.2181 18.0551,21.7591 C17.3591,21.3731 16.6211,20.9791 15.8591,20.5721 C12.4221,18.7371 8.3261,16.5501 5.1821,13.5601 L5.1821,65.9111 C5.1821,67.2921 4.0631,68.4111 2.6821,68.4111" id="Fill-32" fill="#3E3A39" mask="url(#mask-4)"></path>
                </g>
                <mask id="mask-6" fill="white">
                    <use xlink:href="#path-5"></use>
                </mask>
                <g id="Clip-36"></g>
                <polygon id="Fill-35" fill="#3E3A39" mask="url(#mask-6)" points="139.942 87.819 204.375 87.819 204.375 82.819 139.942 82.819"></polygon>
            </g>
        </g>
    </g>
</svg>