<svg id="레이어_1" data-name="레이어 1" xmlns="http://www.w3.org/2000/svg" viewBox="0 0 359.28 64.3"><defs><style>.cls-2{fill:none;stroke:#000;stroke-miterlimit:10;stroke-width:.5px}</style></defs><path d="M350 0v38.91H342.89V0H350zM337.17 0v38.91h-7.12V0h7.12zM324.33 0v38.91H317.22V0h7.11zM298.67 0v38.91H291.56V0h7.11zM285.84 0v38.91H278.73V0h7.11zM260.18 0v38.91H253.07V0h7.11zM247.35 0v38.91H240.24V0h7.11zM234.52 0v38.91h-7.12V0h7.12zM208.85 0v38.91H201.74V0h7.11zM196.02 0v38.91H188.91V0h7.11zM170.36 0v38.91H163.25V0h7.11zM157.53 0v38.91H150.42V0h7.11zM144.7 0v38.91H137.59V0h7.11zM119.03 0v38.91H111.92V0h7.11zM106.2 0v38.91H99.09V0h7.11zM80.54 0v38.91H73.43V0h7.11zM67.71 0v38.91H60.6V0h7.11zM54.88 0v38.91H47.77V0h7.11zM29.21 0v38.91H22.1V0h7.11zM16.38 0v38.91H9.27V0h7.11z"/><path fill="#ffe000" d="M12.83 38.91V64.3H0V0h9.27v38.91h3.56z"/><path class="cls-2" d="M9.27 0H0v64.3h359.27V0H350M22.1 0h-5.72M47.77 0H29.21M60.6 0h-5.72M73.43 0h-5.72M99.09 0H80.54M111.92 0h-5.72M137.59 0h-18.56M150.42 0h-5.72M163.25 0h-5.72M188.91 0H170.36M201.74 0h-5.72M227.4 0H208.85M240.24 0h-5.72M253.07 0h-5.72M278.73 0H260.18M291.56 0h-5.72M317.22 0H298.67M330.05 0h-5.72M342.89 0h-5.72M12.83 64.3V38.91M25.66 64.3V38.91M38.49 64.3V0M51.32 64.3V38.91M64.15 64.3V38.91M76.98 64.3V38.91M89.82 64.3V0M102.65 64.3V38.91M115.48 64.3V38.91M128.31 64.3V0M141.14 64.3V38.91M153.97 64.3V38.91M166.8 64.3V38.91M179.63 64.3V0M346.44 64.3V38.91M333.61 64.3V38.91M320.78 64.3V38.91M307.95 64.3V0M295.12 64.3V38.91M282.29 64.3V38.91M269.45 64.3V0M256.62 64.3V38.91M243.79 64.3V38.91M230.96 64.3V38.91M218.13 64.3V0M205.3 64.3V38.91M192.47 64.3V38.91"/><path d="M358.78.5v63.3H.5V.5h358.28m.5-.5H0v64.3h359.28V0z"/></svg>