<svg id="레이어_1" data-name="레이어 1" xmlns="http://www.w3.org/2000/svg" viewBox="0 0 359.28 64.3"><defs><style>.cls-1{fill:#ffe000;}.cls-2{fill:none;stroke:#000;stroke-miterlimit:10;stroke-width:0.5px;}</style></defs><title>대지 106</title><polygon points="350 0 350 38.91 346.44 38.91 342.89 38.91 342.89 0 350 0"/><polygon points="337.17 0 337.17 38.91 333.61 38.91 330.05 38.91 330.05 0 337.17 0"/><polygon points="324.33 0 324.33 38.91 320.78 38.91 317.22 38.91 317.22 0 324.33 0"/><polygon points="298.67 0 298.67 38.91 295.12 38.91 291.56 38.91 291.56 0 298.67 0"/><polygon points="285.84 0 285.84 38.91 282.29 38.91 278.73 38.91 278.73 0 285.84 0"/><polygon points="260.18 0 260.18 38.91 256.62 38.91 253.07 38.91 253.07 0 260.18 0"/><polygon points="247.35 0 247.35 38.91 243.79 38.91 240.24 38.91 240.24 0 247.35 0"/><polygon points="234.52 0 234.52 38.91 230.96 38.91 227.4 38.91 227.4 0 234.52 0"/><polygon points="208.85 0 208.85 38.91 205.3 38.91 201.74 38.91 201.74 0 208.85 0"/><polygon points="196.02 0 196.02 38.91 192.47 38.91 188.91 38.91 188.91 0 196.02 0"/><polygon points="170.36 0 170.36 38.91 166.8 38.91 163.25 38.91 163.25 0 170.36 0"/><polygon points="157.53 0 157.53 38.91 153.97 38.91 150.42 38.91 150.42 0 157.53 0"/><polygon points="144.7 0 144.7 38.91 141.14 38.91 137.59 38.91 137.59 0 144.7 0"/><polygon class="cls-1" points="128.31 0 128.31 64.3 115.48 64.3 115.48 38.91 119.03 38.91 119.03 0 128.31 0"/><polygon points="119.03 0 119.03 38.91 115.48 38.91 111.92 38.91 111.92 0 119.03 0"/><polygon points="106.2 0 106.2 38.91 102.65 38.91 99.09 38.91 99.09 0 106.2 0"/><polygon points="80.54 0 80.54 38.91 76.98 38.91 73.43 38.91 73.43 0 80.54 0"/><polygon points="67.71 0 67.71 38.91 64.15 38.91 60.6 38.91 60.6 0 67.71 0"/><polygon points="54.88 0 54.88 38.91 51.32 38.91 47.77 38.91 47.77 0 54.88 0"/><polygon points="29.21 0 29.21 38.91 25.66 38.91 22.1 38.91 22.1 0 29.21 0"/><polygon points="16.38 0 16.38 38.91 12.83 38.91 9.27 38.91 9.27 0 16.38 0"/><polyline class="cls-2" points="9.27 0 0 0 0 64.3 12.83 64.3 25.66 64.3 38.49 64.3 51.32 64.3 64.15 64.3 76.98 64.3 89.82 64.3 102.65 64.3 115.48 64.3 128.31 64.3 141.14 64.3 153.97 64.3 166.8 64.3 179.63 64.3 192.47 64.3 205.3 64.3 218.13 64.3 230.96 64.3 243.79 64.3 256.62 64.3 269.45 64.3 282.29 64.3 295.12 64.3 307.95 64.3 320.78 64.3 333.61 64.3 346.44 64.3 359.27 64.3 359.27 0 350 0"/><line class="cls-2" x1="22.1" x2="16.38"/><polyline class="cls-2" points="47.77 0 38.49 0 29.21 0"/><line class="cls-2" x1="60.6" x2="54.88"/><line class="cls-2" x1="73.43" x2="67.71"/><polyline class="cls-2" points="99.09 0 89.82 0 80.54 0"/><line class="cls-2" x1="111.92" x2="106.2"/><polyline class="cls-2" points="137.59 0 128.31 0 119.03 0"/><line class="cls-2" x1="150.42" x2="144.7"/><line class="cls-2" x1="163.25" x2="157.53"/><polyline class="cls-2" points="188.91 0 179.63 0 170.36 0"/><line class="cls-2" x1="201.74" x2="196.02"/><polyline class="cls-2" points="227.4 0 218.13 0 208.85 0"/><line class="cls-2" x1="240.24" x2="234.52"/><line class="cls-2" x1="253.07" x2="247.35"/><polyline class="cls-2" points="278.73 0 269.45 0 260.18 0"/><line class="cls-2" x1="291.56" x2="285.84"/><polyline class="cls-2" points="317.22 0 307.95 0 298.67 0"/><line class="cls-2" x1="330.05" x2="324.33"/><line class="cls-2" x1="342.89" x2="337.17"/><line class="cls-2" x1="12.83" y1="64.3" x2="12.83" y2="38.91"/><line class="cls-2" x1="25.66" y1="64.3" x2="25.66" y2="38.91"/><line class="cls-2" x1="38.49" y1="64.3" x2="38.49"/><line class="cls-2" x1="51.32" y1="64.3" x2="51.32" y2="38.91"/><line class="cls-2" x1="64.15" y1="64.3" x2="64.15" y2="38.91"/><line class="cls-2" x1="76.98" y1="64.3" x2="76.98" y2="38.91"/><line class="cls-2" x1="89.82" y1="64.3" x2="89.82"/><line class="cls-2" x1="102.65" y1="64.3" x2="102.65" y2="38.91"/><line class="cls-2" x1="115.48" y1="64.3" x2="115.48" y2="38.91"/><line class="cls-2" x1="128.31" y1="64.3" x2="128.31"/><line class="cls-2" x1="141.14" y1="64.3" x2="141.14" y2="38.91"/><line class="cls-2" x1="153.97" y1="64.3" x2="153.97" y2="38.91"/><line class="cls-2" x1="166.8" y1="64.3" x2="166.8" y2="38.91"/><line class="cls-2" x1="179.63" y1="64.3" x2="179.63"/><line class="cls-2" x1="346.44" y1="64.3" x2="346.44" y2="38.91"/><line class="cls-2" x1="333.61" y1="64.3" x2="333.61" y2="38.91"/><line class="cls-2" x1="320.78" y1="64.3" x2="320.78" y2="38.91"/><line class="cls-2" x1="307.95" y1="64.3" x2="307.95"/><line class="cls-2" x1="295.12" y1="64.3" x2="295.12" y2="38.91"/><line class="cls-2" x1="282.29" y1="64.3" x2="282.29" y2="38.91"/><line class="cls-2" x1="269.45" y1="64.3" x2="269.45"/><line class="cls-2" x1="256.62" y1="64.3" x2="256.62" y2="38.91"/><line class="cls-2" x1="243.79" y1="64.3" x2="243.79" y2="38.91"/><line class="cls-2" x1="230.96" y1="64.3" x2="230.96" y2="38.91"/><line class="cls-2" x1="218.13" y1="64.3" x2="218.13"/><line class="cls-2" x1="205.3" y1="64.3" x2="205.3" y2="38.91"/><line class="cls-2" x1="192.47" y1="64.3" x2="192.47" y2="38.91"/></svg>